<?xml version="1.0" standalone="no"?>
<!DOCTYPE svg PUBLIC "-//W3C//DTD SVG 1.1//EN" "http://www.w3.org/Graphics/SVG/1.1/DTD/svg11.dtd" >
<svg xmlns="http://www.w3.org/2000/svg">
<metadata></metadata>
<defs>
<font id="ambrielbold_italic" horiz-adv-x="757" >
<font-face units-per-em="2048" ascent="1638" descent="-410" />
<missing-glyph horiz-adv-x="512" />
<glyph horiz-adv-x="2048" />
<glyph horiz-adv-x="2048" />
<glyph unicode="&#xd;" horiz-adv-x="2048" />
<glyph unicode=" "  horiz-adv-x="512" />
<glyph unicode="&#x09;" horiz-adv-x="512" />
<glyph unicode="&#xa0;" horiz-adv-x="512" />
<glyph unicode="!" horiz-adv-x="585" d="M-12 102q2 43 38.5 86t94.5 43q54 0 92 -39t35 -94q-3 -53 -43 -90t-96 -37q-62 0 -92.5 42.5t-28.5 88.5zM205 481q105 545 119 838q2 35 10 67t25.5 62.5t49.5 49t76 18.5q17 0 37 -5t44.5 -19t40.5 -45.5t16 -76.5q0 -52 -35 -117q-30 -55 -78 -150.5t-132 -279.5 t-149 -350z" />
<glyph unicode="&#x22;" horiz-adv-x="790" d="M223 907q14 77 20 189t7.5 201.5t3.5 103.5q7 56 39.5 86.5t79.5 30.5q61 0 86.5 -47.5t9.5 -102.5q-7 -25 -17 -47.5t-26 -53t-20 -38.5q-7 -14 -33.5 -62.5t-40.5 -76t-36.5 -81t-41.5 -110.5zM586 907q14 77 20 189t7 201.5t3 103.5q7 56 39.5 86.5t79.5 30.5 q61 0 86.5 -47.5t9.5 -102.5q-7 -25 -17 -47.5t-26 -53t-20 -38.5q-7 -14 -33.5 -62.5t-40.5 -76t-36.5 -81t-41.5 -110.5z" />
<glyph unicode="#" horiz-adv-x="1138" d="M33 485l24 82h226l131 344h-209l22 82h226l170 412h90l-168 -412h262l170 412h88l-166 -412h195l-23 -82h-209l-131 -344h191l-23 -82h-209l-168 -411h-90l166 411h-262l-168 -411h-90l166 411h-211zM377 567h260l131 344h-260z" />
<glyph unicode="$" horiz-adv-x="1138" d="M-18 295q1 82 54 127t126 45q71 0 123.5 -43.5t52.5 -118.5q0 -49 -30 -83t-83 -34t-83.5 30.5t-30.5 66.5q0 26 17 43.5t48 17.5q23 0 36 -10.5t13 -22.5q0 -22 -28 -22q-11 0 -26 7t-21 7q-15 0 -15 -20q0 -25 24 -48.5t70 -23.5q38 0 60 27t22 65q0 64 -44.5 99.5 t-106.5 35.5q-61 0 -105.5 -37.5t-44.5 -105.5q0 -36 18 -73.5t55 -73.5t102.5 -65t150.5 -42l174 633q-180 132 -243.5 219.5t-63.5 191.5q0 75 28.5 145t81 126t137 89.5t187.5 33.5q12 0 24 -0.5t32.5 -1.5t37.5 -2l51 180l60 -12l-49 -181q83 -13 174 -53t139 -78 l-86 -268l-8 2q1 34 -0.5 62t-7.5 67.5t-21.5 71.5t-40 64.5t-65.5 58t-95 41.5l-147 -533q79 -60 131 -106.5t100.5 -104.5t71.5 -121.5t23 -134.5q0 -117 -66.5 -217.5t-182 -159.5t-253.5 -59l-74 4l-66 -240l-59 13l66 237q-167 31 -256.5 109t-87.5 176zM383 1212 q0 -68 43.5 -133t155.5 -145l141 510q-36 8 -78 8q-125 0 -193.5 -71t-68.5 -169zM395 33q173 -17 268 69.5t95 237.5q0 51 -13 91.5t-46 80.5t-57 62.5t-79 68.5z" />
<glyph unicode="%" horiz-adv-x="1662" d="M127 971q0 101 41 197.5t105.5 165t143.5 110t154 41.5q61 0 101 -15.5t92 -52.5q14 -9 48 -34.5t53.5 -37.5t51.5 -28.5t65.5 -23.5t70.5 -7q115 0 198.5 77t83.5 193q0 86 -49 133.5t-112 47.5q-61 0 -110.5 -42t-49.5 -114q0 -49 29.5 -86t72.5 -37q42 0 68 30.5 t26 65.5q0 19 -11.5 34.5t-22.5 15.5q-6 0 -20 -27t-34 -27t-20 23t20.5 39t42.5 16q29 0 48.5 -20.5t19.5 -57.5q0 -40 -34 -77t-87 -37q-56 0 -91.5 42t-35.5 101q0 85 58.5 134.5t132.5 49.5q75 0 133.5 -56.5t58.5 -156.5q0 -37 -10.5 -75.5t-32 -77t-38 -64.5 t-45.5 -66t-38 -53l-860 -1232h-72l899 1286q-106 -33 -199 -11.5t-175 89.5q14 -49 14 -99q0 -54 -16.5 -122t-52.5 -141t-85 -134t-121 -100t-153 -39q-116 0 -186 75t-70 185zM319 920q0 -70 33.5 -112t102.5 -42q56 0 114.5 50.5t101.5 124t71 155.5t28 145 q0 17 -2 35.5t-10.5 46t-22 48t-40.5 35.5t-62 15q-65 0 -140 -84t-124.5 -203t-49.5 -214zM850 229q0 101 41 197.5t105.5 165t143.5 110t154 41.5q123 0 182.5 -64t59.5 -173q0 -44 -12.5 -99t-35.5 -115.5t-60 -118t-83 -103t-107.5 -73.5t-129.5 -28q-118 0 -188 75 t-70 185zM1044 180q0 -72 33 -113.5t103 -41.5q73 0 149 84.5t121 195.5t45 195q0 17 -2 35.5t-11 46t-22.5 48t-40 35.5t-61.5 15q-66 0 -140.5 -84t-124 -202t-49.5 -214z" />
<glyph unicode="&#x26;" horiz-adv-x="1716" d="M35 340q0 66 33.5 135.5t70.5 112.5q37 41 78 73t108 67t110 55t151 67q-31 143 -31 219q0 90 26 170.5t75 142.5t125.5 98t170.5 36q141 0 218 -69.5t77 -164.5q0 -45 -18 -88t-43.5 -75t-67.5 -64t-74.5 -52.5t-81.5 -43.5t-72 -32t-61 -24q21 -149 89.5 -314 t148.5 -278q97 79 171 185.5t71 195.5q-3 74 -46.5 112t-103.5 38q-57 0 -103 -40t-46 -104q0 -38 23 -61t59 -23q38 0 64 25t26 49q0 19 -15 19q-4 0 -20 -7.5t-27 -7.5q-10 0 -18 6.5t-8 16.5q0 11 12.5 19.5t34.5 8.5q30 0 46.5 -16.5t16.5 -40.5q0 -34 -31.5 -64 t-80.5 -30q-44 0 -75.5 28t-31.5 78q0 74 54 121t120 47q71 0 124.5 -44.5t53.5 -133.5q0 -56 -21.5 -112.5t-63 -111.5t-76.5 -93t-89 -90q132 -187 279 -187q107 0 209 117l12 -10q-41 -54 -75.5 -91.5t-81.5 -75t-103 -56.5t-119 -19q-187 0 -327 170 q-195 -170 -443 -170q-24 0 -52.5 3.5t-69 14t-77.5 27t-75 46.5t-66 68.5t-45.5 95.5t-17.5 126zM291 412q0 -53 18.5 -111t54.5 -114t99 -92t141 -36q116 0 252 99q-44 71 -68.5 114t-65 127t-72.5 185.5t-58 224.5q-72 -35 -120.5 -67t-92.5 -78.5t-66 -109t-22 -142.5z M786 1186q0 -77 31 -248q89 46 151 98t91 102.5t40 90t11 78.5q0 75 -33 127.5t-108 52.5q-66 0 -108.5 -44.5t-58.5 -109t-16 -147.5z" />
<glyph unicode="'" horiz-adv-x="428" d="M223 907q14 77 20 189t7.5 201.5t3.5 103.5q7 56 39.5 86.5t79.5 30.5q61 0 86.5 -47.5t9.5 -102.5q-7 -25 -17 -47.5t-26 -53t-20 -38.5q-7 -14 -33.5 -62.5t-40.5 -76t-36.5 -81t-41.5 -110.5z" />
<glyph unicode="(" d="M74 434q0 69 5 129.5t22.5 140t46.5 151.5t80 158t120 166.5t170 170t227 174.5l23 -29q-52 -46 -88 -82t-92.5 -104.5t-96 -136.5t-85 -173.5t-73.5 -220t-46.5 -270.5t-18.5 -332q0 -99 14 -188.5t41 -163t48 -117.5t51 -98l-29 -27q-43 57 -76.5 106.5t-82 138.5 t-80.5 174.5t-56 201t-24 231.5z" />
<glyph unicode=")" d="M-84 -387q59 56 89 86t81 89t83.5 111.5t70.5 132t67 171.5q107 351 107 667q0 175 -32.5 326.5t-129.5 308.5l39 19q315 -409 315 -873q0 -619 -667 -1069z" />
<glyph unicode="*" horiz-adv-x="1126" d="M186 1020q6 27 32.5 54t70.5 32q30 4 73 -4.5t91.5 -7.5t109.5 24l2 17q-36 36 -72.5 57t-61.5 26t-56 14t-53 23q-38 22 -52 57.5t-8 61.5q5 32 38 57t81 15q39 -8 62 -39t33 -68t37.5 -88.5t70.5 -89.5l20 4q13 58 9.5 106t-14.5 73.5t-17.5 62t0.5 70.5q9 39 43.5 60 t74.5 13q36 -8 55.5 -34t18.5 -50t-2 -41q-5 -28 -19 -49.5t-30.5 -38.5t-33 -37.5t-31 -56.5t-21.5 -84l18 -12q46 14 84 40.5t62 51.5t47 47.5t49.5 33t58.5 3.5q48 -10 67.5 -45.5t12.5 -67.5q-6 -28 -32 -54t-72 -30q-29 -4 -71 5.5t-91 9.5t-111 -27l-4 -18 q36 -39 73 -60.5t62.5 -26t57 -12.5t53.5 -22q38 -22 52 -57t8 -62q-5 -32 -38 -57t-81 -15q-32 7 -52 27.5t-32 50.5t-24 63t-36.5 72.5t-60.5 71.5l-21 -4q-22 -92 -13 -130.5t23.5 -83.5t6.5 -85q-7 -33 -36 -63.5t-81 -20.5q-40 9 -63.5 42.5t-14.5 72.5q8 36 28 65 t40.5 48t43 61t34.5 100l-17 12q-46 -14 -84 -40t-62 -51.5t-47 -48t-49.5 -33t-58.5 -3.5q-47 9 -67 46t-13 67z" />
<glyph unicode="+" horiz-adv-x="1069" d="M0 418l39 151h371l102 377h160l-103 -377h371l-39 -151h-371l-102 -377h-160l103 377h-371z" />
<glyph unicode="," horiz-adv-x="471" d="M-53 -268q0 17 15.5 24.5t31.5 7.5q13 0 35.5 -5t31.5 -5q45 0 82 49t37 101q0 11 -3 21t-6 17.5t-11.5 15.5t-13 12t-17 11.5t-17 9.5t-20 10t-18.5 9q-42 21 -65 46.5t-23 68.5q0 46 31 76t75 30q75 0 118.5 -59t43.5 -145q0 -118 -77 -223t-181 -105q-17 0 -33 8 t-16 25z" />
<glyph unicode="-" d="M66 401l49 185h512l-47 -185h-514z" />
<glyph unicode="." horiz-adv-x="471" d="M-12 102q2 43 38.5 86t94.5 43q54 0 92 -39t35 -94q-3 -53 -43 -90t-96 -37q-62 0 -92.5 42.5t-28.5 88.5z" />
<glyph unicode="/" horiz-adv-x="626" d="M-113 -41l748 1557h110l-747 -1557h-111z" />
<glyph unicode="0" horiz-adv-x="1138" d="M61 449q0 131 26 262t66 233.5t89.5 191.5t95 146t84.5 88q-35 -76 -23.5 -152.5t68.5 -119.5q-5 -15 -17 -54t-18 -57q-39 -122 -109.5 -408.5t-70.5 -404.5q0 -27 6 -55t20.5 -57t43.5 -47.5t69 -18.5q37 0 70 18.5t61.5 56.5t51 77t45 98.5t36.5 102t33 104.5 q66 233 125 485.5t59 347.5q0 144 -105 185t-209.5 -28t-104.5 -194q0 -67 39 -102t96 -35q64 0 114 40.5t50 107.5q0 35 -23 57t-59 22q-38 0 -64 -25t-26 -48q0 -19 14 -19q4 0 20 7.5t27 7.5q10 0 18.5 -6.5t8.5 -16.5q0 -11 -12.5 -20t-34.5 -9q-30 0 -47 17t-17 41 q0 34 32 64t81 30q44 0 75 -27.5t31 -74.5q0 -68 -52.5 -119t-139.5 -51q-68 0 -112 47t-44 116q0 114 95 192q90 73 209 69q141 -5 230 -120q103 -132 103 -374q0 -192 -52 -382.5t-139 -338.5t-210 -240t-256 -92q-79 0 -141 31.5t-100 81t-62.5 115t-34 128t-9.5 126.5z " />
<glyph unicode="1" horiz-adv-x="847" d="M-115 0l4 14q64 6 108.5 16t78 33t53.5 41.5t39 64t29 78.5t30 106q8 31 13 48l206 768q11 42 17 69.5t9.5 56.5t0 45.5t-13 32t-27.5 21t-46 8t-66 -3t-89 -16.5l9 27l534 109h12l-311 -1168q-42 -155 -45 -196q-7 -76 45 -107q40 -23 129 -33l-4 -14h-715z" />
<glyph unicode="2" horiz-adv-x="1056" d="M-182 -70q64 80 189 204.5t238.5 237t224 236t177 243.5t66.5 218q0 79 -23 140t-62.5 97t-87 53.5t-100.5 16.5q-126 -1 -207 -69t-81 -164q0 -67 39 -102t96 -35q65 0 114.5 40t49.5 107q0 35 -23.5 57.5t-58.5 22.5q-38 0 -64 -25t-26 -49q0 -18 14 -18q4 0 20 7t27 7 q10 0 18.5 -6t8.5 -16q0 -11 -13 -20t-35 -9q-30 0 -46.5 16.5t-16.5 40.5q0 34 32 64t81 30q44 0 75 -27.5t31 -74.5q0 -68 -52.5 -119t-139.5 -51q-68 0 -112 47.5t-44 116.5q0 101 64.5 186t167 131.5t214.5 46.5q110 0 200 -41.5t145 -124.5t55 -194q0 -301 -326 -539 q-24 -18 -152 -105.5t-220.5 -159.5t-157.5 -140h438q96 0 154 17t96.5 54t79.5 111h14l-154 -389h-716q-58 0 -101.5 -15.5t-97.5 -62.5z" />
<glyph unicode="3" horiz-adv-x="1097" d="M-33 121q0 35 12 59.5t31 35.5t35 15.5t31 4.5q54 0 82 -26t93 -126q7 -10 11 -16q32 -50 119 -50q112 0 191 94t79 257q0 174 -91 270.5t-261 105.5l2 15q44 11 91.5 28t111 52t112.5 78.5t83 110t34 142.5q0 103 -60.5 163.5t-174.5 60.5q-111 0 -193 -78t-82 -174 q0 -67 39 -102t96 -35q65 0 114.5 40t49.5 107q0 35 -23.5 57.5t-58.5 22.5q-38 0 -64 -25t-26 -49q0 -18 15 -18q4 0 20 7t27 7q10 0 18 -6t8 -16q0 -11 -12.5 -20t-34.5 -9q-30 0 -46.5 16.5t-16.5 40.5q0 34 31.5 64t80.5 30q44 0 75.5 -27.5t31.5 -74.5q0 -68 -53 -119 t-140 -51q-68 0 -111.5 47.5t-43.5 116.5q0 101 64.5 186t167 131.5t214.5 46.5q139 0 237.5 -75t98.5 -213q0 -240 -313 -361q37 -24 64.5 -45t61 -55.5t55 -70t36 -85.5t14.5 -106q0 -151 -91 -273.5t-238.5 -189t-317.5 -66.5q-74 0 -130.5 13.5t-84.5 32t-45 42 t-21 37.5t-4 25z" />
<glyph unicode="4" horiz-adv-x="1138" d="M-31 477l666 639q121 118 121 246q0 86 -49 133t-113 47q-60 0 -106 -42t-46 -114q0 -32 12 -59.5t35 -45t52 -17.5q42 0 68 30.5t26 65.5q0 19 -12 34t-23 15q-6 0 -12 -13.5t-16 -26.5t-25 -13q-9 0 -15 6t-6 16q0 23 21 39.5t43 16.5q29 0 48 -20.5t19 -57.5 q0 -40 -33.5 -77.5t-86.5 -37.5q-55 0 -89 42t-34 101q0 86 54.5 135.5t127.5 49.5q35 0 68.5 -13.5t61.5 -39t45 -67.5t17 -93q0 -145 -145 -287l-508 -496h500l151 623q21 18 56 48.5t114.5 108.5t126.5 136l19 -10l-225 -906h159v-155h-200l-19 -68q-38 -141 -41 -209 q0 -59 39 -88t139 -39l-4 -14h-712l4 14q44 4 78.5 12t62 15.5t50 24.5t38.5 29t30.5 39.5t23.5 45t20 57.5t17.5 64.5t18.5 77.5l9 39h-596z" />
<glyph unicode="5" horiz-adv-x="1097" d="M-23 121q0 58 33.5 86.5t77.5 28.5q47 0 81.5 -22.5t55 -54.5t39.5 -64t45.5 -54.5t61.5 -22.5q91 0 169 59.5t120 148t42 180.5q0 169 -129.5 284t-345.5 135l-77 -94l-11 6l320 742h299q116 0 215 27t158 76t59 108q0 35 -23 57t-59 22q-39 0 -64.5 -23.5t-25.5 -49.5 q0 -19 16 -19q4 0 19.5 7.5t25.5 7.5q11 0 19 -6.5t8 -16.5q0 -11 -12 -21t-33 -10q-31 0 -48.5 17.5t-17.5 42.5q0 34 32 64t81 30q47 0 80 -31.5t33 -77.5q0 -36 -14.5 -66t-39.5 -59t-53 -62t-62.5 -90.5t-60.5 -129.5h-577l-95 -232q150 -22 265.5 -73.5t184.5 -122 t103.5 -151.5t34.5 -169q0 -104 -47 -203.5t-130.5 -178.5t-209.5 -127t-272 -48q-135 0 -203 47.5t-68 102.5z" />
<glyph unicode="6" horiz-adv-x="1138" d="M76 438q0 74 16.5 157t55 177.5t95 184.5t142.5 178t191 159t248 125.5t306 79.5l5 -16q-200 -60 -363 -213t-278 -391q87 41 172 41q108 0 185 -53t112.5 -136.5t35.5 -187.5q0 -129 -48 -240t-125.5 -184t-173 -114.5t-191.5 -41.5q-78 0 -146 28t-122 84t-85.5 149.5 t-31.5 213.5zM285 188q0 -23 1.5 -40.5t5.5 -42t13.5 -42.5t24 -34.5t39 -25.5t55.5 -9q85 0 164 101.5t124.5 245.5t45.5 275q0 130 -50 193t-122 63q-65 0 -116.5 -45.5t-51.5 -111.5q0 -40 22.5 -67t63.5 -27q38 0 64 25t26 48q0 19 -16 19q-4 0 -20 -7.5t-26 -7.5 q-11 0 -18.5 6.5t-7.5 16.5q0 11 12.5 20t34.5 9q30 0 46.5 -17t16.5 -41q0 -34 -31.5 -64t-80.5 -30q-39 0 -69 23t-38 59l-12 -31q-42 -106 -67 -224t-29 -166.5t-4 -70.5z" />
<glyph unicode="7" horiz-adv-x="995" d="M63 1063q0 41 20.5 79t48.5 67.5t68 88t70 127.5l54 131l12 -2l-10 -75h817l-858 -1512h-156l832 1301h-435q-116 0 -215 -27t-158 -76t-59 -108q0 -35 23.5 -57.5t58.5 -22.5q39 0 64.5 24t25.5 50q0 18 -16 18q-4 0 -19.5 -7t-25.5 -7q-11 0 -19 6t-8 16q0 11 12 21 t33 10q31 0 48.5 -17t17.5 -42q0 -34 -32 -64.5t-81 -30.5q-47 0 -80 31.5t-33 77.5z" />
<glyph unicode="8" horiz-adv-x="1097" d="M8 319q0 64 22 122t55.5 99t78 76.5t84 57t80.5 37.5q-41 -41 -41 -109q-41 -52 -60 -92q-43 -92 -43 -213q0 -36 6 -72.5t23.5 -78t44.5 -72.5t72.5 -51.5t103.5 -20.5q81 0 143.5 46.5t92.5 117t30 149.5q0 100 -54.5 191t-186.5 231q-51 -17 -87 -54t-36 -89 q0 -38 23 -61t59 -23q38 0 64 25t26 49q0 18 -14 18q-4 0 -20.5 -7t-27.5 -7q-10 0 -18 6t-8 16q0 11 12.5 20t34.5 9q30 0 46.5 -16.5t16.5 -40.5q0 -34 -31.5 -64.5t-80.5 -30.5q-44 0 -75.5 28.5t-31.5 78.5q0 63 39 103t90 59q-7 8 -36 37t-51 56t-48 67t-40.5 91 t-14.5 107q0 175 119 286t299 111q47 0 97 -10.5t99.5 -34.5t88.5 -57.5t63 -84.5t24 -112q0 -68 -26 -125.5t-75 -101t-105 -76t-129 -61.5q45 -47 74.5 -84t63 -92t51 -118.5t17.5 -133.5q0 -132 -65.5 -236t-172 -158.5t-233.5 -54.5q-80 0 -146.5 16t-110 40.5t-77 58.5 t-51.5 66.5t-29.5 67.5t-14.5 57.5t-3 41.5zM459 1237q0 -100 56.5 -183t172.5 -188q83 60 134.5 148.5t51.5 197.5q0 131 -56.5 200t-149.5 69q-54 0 -95.5 -23t-65.5 -60t-36 -78t-12 -83z" />
<glyph unicode="9" horiz-adv-x="1138" d="M0 -6q200 60 363 213t278 391q-87 -41 -172 -41q-108 0 -185.5 53t-113 136.5t-35.5 187.5q0 128 48.5 239.5t126 184.5t173 114t191.5 41q78 0 146 -28t122 -84t85.5 -149.5t31.5 -213.5q0 -74 -16.5 -157t-55 -177.5t-95 -184.5t-143 -178t-191.5 -159t-248 -125.5 t-306 -79.5zM377 860q0 -130 50 -193t122 -63q65 0 116.5 46t51.5 112q0 40 -22.5 67t-63.5 27q-38 0 -64 -25t-26 -49q0 -18 16 -18q4 0 19.5 7t25.5 7q11 0 19 -6t8 -16q0 -11 -12.5 -20t-34.5 -9q-30 0 -47 16.5t-17 40.5q0 34 32 64.5t81 30.5q39 0 68.5 -23t37.5 -59 l13 30q42 106 67 224t29 166.5t4 70.5q0 28 -1.5 49.5t-9.5 50.5t-22 48t-41.5 33t-64.5 14q-85 0 -164 -102t-124.5 -246t-45.5 -275z" />
<glyph unicode=":" horiz-adv-x="536" d="M-14 102q2 43 38.5 86t94.5 43q54 0 92 -39t35 -94q-3 -53 -43 -90t-97 -37q-62 0 -92 42.5t-28 88.5zM182 778q2 43 38.5 86t94.5 43q54 0 92 -39t35 -94q-3 -53 -43 -90t-96 -37q-62 0 -92.5 42.5t-28.5 88.5z" />
<glyph unicode=";" horiz-adv-x="577" d="M-53 -268q0 17 15.5 24.5t31.5 7.5q13 0 35.5 -5t31.5 -5q45 0 82 49t37 101q0 11 -3 21t-6 17.5t-11.5 15.5t-13 12t-17 11.5t-17 9.5t-20 10t-18.5 9q-42 21 -65 46.5t-23 68.5q0 46 31 76t75 30q75 0 118.5 -59t43.5 -145q0 -118 -77 -223t-181 -105q-17 0 -33 8 t-16 25zM182 774q0 42 36 87.5t97 45.5q56 0 91.5 -38.5t35.5 -94.5q-3 -53 -43 -90t-96 -37q-60 0 -90.5 41t-30.5 86z" />
<glyph unicode="&#x3c;" horiz-adv-x="1069" d="M2 428l35 137l948 391l-20 -153l-760 -314l672 -311l-21 -147z" />
<glyph unicode="=" horiz-adv-x="1069" d="M-25 233l41 152h820l-41 -152h-820zM74 602l41 152h819l-41 -152h-819z" />
<glyph unicode="&#x3e;" horiz-adv-x="1069" d="M-18 31l20 153l760 314l-672 311l21 147l854 -397l-35 -137z" />
<glyph unicode="?" horiz-adv-x="933" d="M74 102q2 43 38.5 86t94.5 43q54 0 92 -39t35 -94q-3 -53 -43 -90t-96 -37q-62 0 -92.5 42.5t-28.5 88.5zM152 1241q0 114 101 194.5t269 80.5q84 0 151.5 -19t109.5 -50t70.5 -72t40 -82t11.5 -83q0 -73 -34 -138.5t-87.5 -114.5t-119 -94t-131 -86t-119 -81t-87.5 -88 t-34 -100q0 -35 23.5 -57.5t58.5 -22.5q39 0 64.5 24t25.5 50q0 18 -16 18q-4 0 -20 -7t-26 -7q-26 0 -26 22q0 11 12 21t33 10q31 0 48 -17t17 -42q0 -34 -31.5 -64t-80.5 -30q-67 0 -96.5 50.5t-10.5 121.5q16 60 63 130t101.5 134t107 132t87.5 148t35 158 q0 61 -16.5 104.5t-45.5 65t-58 30.5t-63 9q-58 0 -110 -33.5t-52 -75.5q0 -17 16.5 -38t33 -50.5t16.5 -66.5q0 -46 -35 -78.5t-82 -32.5q-49 0 -81.5 37.5t-32.5 89.5z" />
<glyph unicode="@" horiz-adv-x="2048" d="M150 567q0 164 54 309t150 254t223 188.5t276.5 120t307.5 40.5q177 0 323.5 -52t240 -139t144 -197.5t50.5 -230.5q0 -144 -34 -262.5t-89.5 -195t-128.5 -129t-148 -75t-151 -22.5q-122 0 -205.5 55t-83.5 144q0 16 2 24q-42 -101 -123.5 -155t-169.5 -54 q-98 0 -166.5 69.5t-68.5 193.5q0 97 36.5 198.5t100.5 188.5t145 156t177.5 109t189.5 40q140 0 258 -88q29 9 65.5 33t58.5 44l22 19l12 -4l-328 -739q-22 -55 -22 -93q0 -50 33 -77t88 -27q52 0 110 23.5t118 75.5t107.5 124.5t78 180.5t30.5 233q0 165 -91.5 300 t-250.5 211.5t-352 76.5q-148 0 -279 -48t-227.5 -132t-166.5 -194t-105 -236.5t-35 -258.5q0 -91 23 -181t80.5 -181.5t143 -160t221 -112t304.5 -43.5q86 0 170.5 16t124 29.5t102.5 38.5l12 -20q-107 -63 -239.5 -92t-253.5 -29q-130 0 -253 27.5t-234.5 87t-195 144 t-132.5 207t-49 267.5zM801 510q0 -69 30 -110.5t91 -41.5q62 0 112.5 45t50.5 115q0 34 -21.5 56t-55.5 22q-36 0 -61 -25t-25 -47q0 -18 14 -18q4 0 19.5 7t25.5 7t17.5 -5.5t7.5 -14.5q0 -11 -12 -20t-33 -9q-29 0 -45.5 16.5t-16.5 38.5q0 32 30.5 61t78.5 29 q46 0 76 -30t30 -74q0 -7 -4 -27l250 564q-48 63 -125 63q-103 0 -207 -105t-165.5 -245t-61.5 -252z" />
<glyph unicode="A" horiz-adv-x="1572" d="M-205 0l2 16q97 3 180 50.5t187 175.5l766 948v-45l-410 -539h459v662q0 113 -117 171t-311 58q-76 0 -151.5 -15t-146 -47.5t-124.5 -78t-86.5 -112t-32.5 -144.5q0 -143 85.5 -220t205.5 -77q82 0 154.5 33.5t121 104t48.5 163.5q0 74 -47 122t-119 48 q-86 0 -142.5 -51t-56.5 -107q0 -47 39 -47q15 0 45 14.5t49 14.5q17 0 30 -9.5t13 -25.5q0 -20 -22.5 -35.5t-61.5 -15.5q-57 0 -89 30.5t-32 71.5q0 65 60.5 123.5t159.5 62.5q84 0 143 -51t59 -145q0 -101 -52.5 -177.5t-131.5 -113.5t-168 -37q-132 0 -225.5 84 t-93.5 240q0 62 20 121t67 116t117.5 99t179.5 68t244 26q106 0 368 -15.5t273 -15.5v-1161v-10v-57.5t2 -50.5t5.5 -47.5t10 -40t16.5 -37t25.5 -28.5t35 -24.5t46.5 -16t60 -10.5l-2 -16h-721v14q58 10 94 20.5t66 30.5t46 44t27 67.5t14 95t3 131.5v142h-506l-92 -119 q-60 -79 -97 -137.5t-59 -100t-19.5 -70.5t10 -46t41 -29t62 -17t84.5 -12v-14h-608z" />
<glyph unicode="B" horiz-adv-x="1921" d="M-25 1100q0 62 20 121t67.5 116t118 99t179.5 68t244 26q53 0 113 -4t148 -12.5t134 -12.5q83 -7 336 -18q6 0 19 -1q43 -2 70.5 -4t83.5 -10t94.5 -20.5t86.5 -36.5t77.5 -56t49 -81.5t17.5 -110.5q-3 -83 -38.5 -150t-96.5 -112t-135.5 -74.5t-165.5 -46.5v-4 q344 -68 344 -325q0 -100 -37 -178.5t-98.5 -129t-146.5 -83.5t-175.5 -46.5t-191.5 -13.5h-748v14q57 6 97 14.5t70.5 30t47.5 36t35 58.5t25 69t25 94q6 22 9 34l209 778q21 77 21 140q0 113 -80 171t-260 58q-96 0 -189.5 -25t-172.5 -72t-128 -125t-49 -175 q0 -143 85.5 -220t205.5 -77q82 0 154.5 33.5t120.5 104t48 163.5q0 74 -46.5 122t-118.5 48q-86 0 -142.5 -51t-56.5 -107q0 -47 39 -47q15 0 45 14.5t49 14.5q17 0 30 -9.5t13 -25.5q0 -20 -22.5 -35.5t-61.5 -15.5q-57 0 -89 30.5t-32 71.5q0 65 60 123.5t159 62.5 q84 0 143.5 -51t59.5 -145q0 -101 -52.5 -177.5t-131.5 -113.5t-168 -37q-132 0 -226 84t-94 240zM889 121q0 -35 25.5 -57t59.5 -29.5t77 -7.5q78 0 141.5 26.5t104 70.5t70 94.5t44 105t21 94.5t6.5 71q0 43 -7 79t-18 62.5t-31.5 47.5t-39 35t-48.5 24.5t-53 16t-60.5 9 t-62 5t-65.5 2.5l-146 -543q-18 -79 -18 -106zM1059 793h39q102 0 184.5 25.5t135 66.5t88 95.5t50.5 109.5t15 112q0 129 -61 190.5t-167 61.5q-30 0 -52.5 -8t-35 -17t-23 -29.5t-14 -30t-10.5 -34.5z" />
<glyph unicode="C" horiz-adv-x="1515" d="M96 524q0 148 42 293.5t123 271.5t190 223.5t253 153.5t302 56q85 0 167 -18t136.5 -36t72.5 -18q40 0 65 17.5t48 56.5l18 -8q-34 -69 -61 -189t-37 -205l-10 -86h-21q11 203 -71 324t-236 121q-91 0 -180 -44t-162 -118.5t-136 -175t-106 -212.5t-67.5 -232.5 t-24.5 -233.5q0 -88 18.5 -159.5t44.5 -115t64.5 -75.5t70 -47t69.5 -23t53 -9t31 -1q94 0 178.5 25t145.5 66.5t106 95t67.5 112t22.5 115.5q0 93 -55.5 139.5t-131.5 46.5q-70 0 -128 -50t-58 -130q0 -47 28.5 -76t73.5 -29q48 0 80.5 31.5t32.5 60.5q0 23 -18 23 q-4 0 -24.5 -8t-35.5 -8q-12 0 -22 7.5t-10 18.5q0 15 15.5 26t43.5 11q37 0 58.5 -21.5t21.5 -50.5q0 -42 -40.5 -80t-101.5 -38q-55 0 -94 35.5t-39 97.5q0 93 67.5 152t149.5 59q40 0 78 -12.5t71.5 -38t54 -70.5t20.5 -103q0 -130 -82 -241t-224 -176.5t-311 -65.5 q-88 0 -171.5 20t-161 65t-136 109.5t-93 160t-34.5 210.5z" />
<glyph unicode="D" horiz-adv-x="2158" d="M-25 1100q0 62 20 121t67.5 116t118 99t179.5 68t244 26q53 0 113 -4t148 -12.5t134 -12.5q72 -6 204.5 -15t199.5 -16q67 -6 124.5 -16.5t125 -31.5t122 -50t107 -76t88 -106t57 -142.5t21.5 -183.5q0 -194 -83.5 -365.5t-235.5 -289.5q-254 -209 -717 -209h-668v14 q159 17 207 73.5t94 233.5q5 19 8 29l209 778q21 77 21 140q0 113 -80 171t-260 58q-96 0 -189.5 -25t-172.5 -72t-128 -125t-49 -175q0 -143 85.5 -220t205.5 -77q82 0 154.5 33.5t120.5 104t48 163.5q0 74 -46.5 122t-118.5 48q-86 0 -142.5 -51t-56.5 -107q0 -47 39 -47 q15 0 45 14.5t49 14.5q17 0 30 -9.5t13 -25.5q0 -20 -22.5 -35.5t-61.5 -15.5q-57 0 -89 30.5t-32 71.5q0 65 60 123.5t159 62.5q84 0 143.5 -51t59.5 -145q0 -101 -52.5 -177.5t-131.5 -113.5t-168 -37q-132 0 -226 84t-94 240zM897 186q-26 -78 -3 -114.5t114 -36.5 q100 0 193 31t166 85t136 126.5t108 155.5t77 171t47.5 174.5t15.5 165.5q0 120 -41 216t-112 157.5t-164.5 94t-200.5 32.5z" />
<glyph unicode="E" horiz-adv-x="1978" d="M-25 1100q0 62 20 121t67.5 116t118 99t179.5 68t244 26q71 0 374 -25.5t482 -25.5h443l-97 -408h-26q12 57 14 104t-3.5 83t-20.5 64.5t-33.5 48t-47 34t-56.5 22.5t-65.5 13t-70.5 6.5t-76 1.5q-112 0 -155.5 -23.5t-65.5 -105.5l-145 -545q98 -2 166 11t129.5 49.5 t109 103t90.5 170.5h17l-187 -700h-16q12 104 0 170t-54.5 102.5t-104.5 49.5t-161 11l-149 -561q-22 -86 13.5 -117.5t158.5 -31.5q56 0 102.5 3t108.5 13.5t114 28t111.5 50.5t109 78t98 112t85.5 151h19l-144 -467h-1327v14q159 17 207 73.5t94 233.5q5 19 8 29l209 778 q23 84 23 140q0 113 -80 171t-260 58q-76 0 -151.5 -15t-146 -47.5t-124.5 -78t-86.5 -112t-32.5 -144.5q0 -143 85.5 -220t205.5 -77q82 0 154.5 33.5t120.5 104t48 163.5q0 74 -46.5 122t-118.5 48q-86 0 -142.5 -51t-56.5 -107q0 -47 39 -47q15 0 45 14.5t49 14.5 q17 0 30 -9.5t13 -25.5q0 -20 -22.5 -35.5t-61.5 -15.5q-57 0 -89 30.5t-32 71.5q0 65 60 123.5t159 62.5q84 0 143.5 -51t59.5 -145q0 -101 -52.5 -177.5t-131.5 -113.5t-168 -37q-132 0 -226 84t-94 240z" />
<glyph unicode="F" horiz-adv-x="1808" d="M-25 1100q0 62 20 121t67.5 116t118 99t179.5 68t244 26q71 0 374 -25.5t482 -25.5h441l-95 -408h-26q12 57 14 104t-3.5 83t-20.5 64.5t-33.5 48t-47 34t-56.5 22.5t-65.5 13t-70.5 6.5t-76 1.5q-112 0 -155.5 -23.5t-65.5 -105.5l-145 -545q98 -2 166.5 11t130 49.5 t109 103t91.5 170.5h17l-189 -700h-16q10 60 6.5 106.5t-10.5 82t-28 61t-45.5 42t-62.5 26t-79.5 13t-97.5 2.5l-93 -340q-46 -173 -51 -214q-12 -89 35 -126q44 -35 162 -47v-14h-754v14q68 7 113 22t73.5 34.5t49 59t33.5 78.5t32 111l3 10.5t2.5 9.5t2.5 11l207 778 q23 84 23 140q0 113 -80 171t-260 58q-76 0 -151.5 -15t-146 -47.5t-124.5 -78t-86.5 -112t-32.5 -144.5q0 -143 85.5 -220t205.5 -77q82 0 154.5 33.5t120.5 104t48 163.5q0 74 -46.5 122t-118.5 48q-86 0 -142.5 -51t-56.5 -107q0 -47 39 -47q15 0 45 14.5t49 14.5 q17 0 30 -9.5t13 -25.5q0 -20 -22.5 -35.5t-61.5 -15.5q-57 0 -89 30.5t-32 71.5q0 65 60 123.5t159 62.5q84 0 143.5 -51t59.5 -145q0 -101 -52.5 -177.5t-131.5 -113.5t-168 -37q-132 0 -226 84t-94 240z" />
<glyph unicode="G" horiz-adv-x="1703" d="M90 553q0 113 30 229t86 226t142 206.5t191 169t240.5 114.5t283.5 42q86 0 168 -20.5t152 -60.5t112.5 -108t42.5 -153q0 -103 -70.5 -162t-162.5 -59q-98 0 -151.5 53.5t-53.5 124.5q0 73 43.5 112.5t101.5 39.5q52 0 88.5 -28.5t36.5 -76.5q0 -30 -22 -51.5t-58 -24.5 q-17 0 -30.5 7.5t-14.5 21.5q0 19 15 27.5t33 8t33 3t15 14.5q0 31 -27.5 51.5t-64.5 20.5q-48 0 -84.5 -32.5t-36.5 -92.5q0 -58 46.5 -103.5t128.5 -45.5t143 51t61 137q0 94 -56.5 163t-140.5 100.5t-182 31.5q-158 0 -296.5 -90.5t-231.5 -238.5t-146 -337.5t-53 -388.5 q0 -85 18 -153.5t45 -113t65.5 -77t74 -49.5t76 -27t64.5 -12t47 -2q117 0 185.5 38.5t84.5 100.5l39 142q39 136 39 190q0 56 -41 85.5t-142 39.5v14h650v-14q-41 -4 -69.5 -12t-50.5 -25.5t-35.5 -35t-26.5 -52.5t-21.5 -67t-22.5 -88q-4 -17 -6 -25l-63 -254 q-19 -77 -40.5 -137t-54.5 -120t-78.5 -93t-101.5 -33t-92.5 33t-36.5 69q0 27 21.5 48.5t62.5 21.5q19 0 29 -8.5t10 -20.5q0 -9 -10 -15.5t-23 -6.5q-7 0 -22.5 3t-22.5 3q-10 0 -17 -7t-7 -18q0 -26 28.5 -49.5t69.5 -23.5q52 0 85 28.5t45.5 69t12.5 92.5q0 80 -24 145 q-2 0 -26.5 -7.5t-40 -11.5l-46.5 -12t-58.5 -13t-62 -10.5t-71.5 -8t-74 -2.5q-109 0 -209 24.5t-185 75t-148 121t-98.5 168t-35.5 211.5z" />
<glyph unicode="H" horiz-adv-x="2150" d="M-25 1100q0 62 20 121t67.5 116t118 99t179.5 68t244 26q87 0 389.5 -23t466.5 -28v-15q-68 -7 -113 -22t-73.5 -34.5t-49 -59t-33.5 -78.5t-32 -111l-3 -10.5t-2.5 -9.5t-2.5 -11l-88 -323h588l88 323q47 167 47 215q0 56 -38.5 83.5t-137.5 37.5v15h725v-15 q-158 -17 -206 -73.5t-96 -234.5q-5 -18 -8 -28l-210 -778q-3 -13 -10 -38.5t-10 -37t-8.5 -32t-7.5 -32t-5 -26.5t-4 -26.5t-1 -22.5q0 -56 39 -83.5t136 -37.5v-14h-725v14q158 16 205.5 71t92.5 225q3 9 4 13.5t3 12.5t4 14l106 393h-587l-107 -393q-45 -169 -45 -215 q0 -56 38.5 -83.5t135.5 -37.5v-14h-725v14q158 16 205.5 71t92.5 225q3 9 4 13.5t3 12.5t4 14l211 778q21 77 21 140q0 113 -80 171t-260 58q-76 0 -151.5 -15t-146 -47.5t-124.5 -78t-86.5 -112t-32.5 -144.5q0 -143 85.5 -220t205.5 -77q82 0 154.5 33.5t120.5 104 t48 163.5q0 74 -46.5 122t-118.5 48q-86 0 -142.5 -51t-56.5 -107q0 -47 39 -47q15 0 45 14.5t49 14.5q17 0 30 -9.5t13 -25.5q0 -20 -22.5 -35.5t-61.5 -15.5q-57 0 -89 30.5t-32 71.5q0 65 60 123.5t159 62.5q84 0 143.5 -51t59.5 -145q0 -101 -52.5 -177.5t-131.5 -113.5 t-168 -37q-132 0 -226 84t-94 240z" />
<glyph unicode="I" horiz-adv-x="1273" d="M-25 1100q0 62 20 121t67.5 116t118 99t179.5 68t244 26q87 0 386.5 -23t463.5 -28v-15q-57 -6 -97 -16t-69.5 -28t-48 -39.5t-33 -57.5t-25 -73.5t-24.5 -95.5q-4 -17 -6 -26l-197 -778q-38 -154 -40 -195q-5 -76 45 -107q40 -24 131 -34v-14h-725v14q57 6 97 16 t69.5 28t48 39.5t33 57.5t25 73.5t24.5 95.5q4 17 6 26l196 778q21 77 21 140q0 113 -80 171t-260 58q-76 0 -151.5 -15t-146 -47.5t-124.5 -78t-86.5 -112t-32.5 -144.5q0 -143 85.5 -220t205.5 -77q82 0 154.5 33.5t120.5 104t48 163.5q0 74 -46.5 122t-118.5 48 q-86 0 -142.5 -51t-56.5 -107q0 -47 39 -47q15 0 45 14.5t49 14.5q17 0 30 -9.5t13 -25.5q0 -20 -22.5 -35.5t-61.5 -15.5q-57 0 -89 30.5t-32 71.5q0 65 60 123.5t159 62.5q84 0 143.5 -51t59.5 -145q0 -101 -52.5 -177.5t-131.5 -113.5t-168 -37q-132 0 -226 84t-94 240z " />
<glyph unicode="J" horiz-adv-x="1259" d="M-88 -168q-2 56 39 96.5t100 40.5q50 0 86.5 -25t57.5 -60t40.5 -70.5t49 -60.5t69.5 -25q33 0 63.5 18.5t54 44.5t46 70t37.5 79.5t31.5 89t24 83.5t19 77t13.5 56l221 882q21 89 21 140q0 113 -80 171t-260 58q-76 0 -151.5 -15t-146 -47.5t-124.5 -78t-86.5 -112 t-32.5 -144.5q0 -143 85.5 -220t205.5 -77q82 0 154.5 33.5t120.5 104t48 163.5q0 74 -46.5 122t-118.5 48q-86 0 -142.5 -51t-56.5 -107q0 -47 39 -47q15 0 45 14.5t49 14.5q17 0 30 -9.5t13 -25.5q0 -20 -22.5 -35.5t-61.5 -15.5q-57 0 -89 30.5t-32 71.5q0 65 60 123.5 t159 62.5q84 0 143.5 -51t59.5 -145q0 -101 -52.5 -177.5t-131.5 -113.5t-168 -37q-132 0 -226 84t-94 240q0 62 20 121t67.5 116t118 99t179.5 68t244 26q87 0 386.5 -23t463.5 -28v-15q-42 -5 -74.5 -11t-59 -18t-44.5 -22.5t-34 -32t-25.5 -38.5t-21 -50.5t-18 -58.5 t-18.5 -73q-5 -21 -8 -32l-209 -837q-156 -625 -776 -625q-44 0 -86 8.5t-80.5 26.5t-62.5 52t-25 79z" />
<glyph unicode="K" horiz-adv-x="2045" d="M-25 1100q0 62 20 121t67.5 116t118 99t179.5 68t244 26q87 0 389.5 -23t466.5 -28v-15q-68 -7 -113 -22t-73.5 -34.5t-49 -59t-33.5 -78.5t-32 -111l-3 -10.5t-2.5 -9.5t-2.5 -11l-115 -428l596 531q286 222 -41 233v15h607v-15q-87 -6 -163.5 -33t-180.5 -96.5 t-216 -162.5t-299 -261q32 -58 75 -138t72 -134.5t68 -124t69 -117.5t70 -103.5t74.5 -92t78 -73t87 -57t95 -33.5t106.5 -13l-2 -15q-155 -51 -268 -51q-139 0 -253 74.5t-226.5 241.5t-245.5 458l-123 -108l-74 -275q-42 -154 -45 -196q-6 -76 47 -107q40 -23 127 -33v-14 h-725v14q57 6 97.5 16t70 28.5t48 39.5t34.5 58t26.5 73.5t26.5 96.5l6 24l209 778q21 77 21 140q0 113 -80 171t-260 58q-76 0 -151.5 -15t-146 -47.5t-124.5 -78t-86.5 -112t-32.5 -144.5q0 -143 85.5 -220t205.5 -77q82 0 154.5 33.5t120.5 104t48 163.5q0 74 -46.5 122 t-118.5 48q-86 0 -142.5 -51t-56.5 -107q0 -47 39 -47q15 0 45 14.5t49 14.5q17 0 30 -9.5t13 -25.5q0 -20 -22.5 -35.5t-61.5 -15.5q-57 0 -89 30.5t-32 71.5q0 65 60 123.5t159 62.5q84 0 143.5 -51t59.5 -145q0 -101 -52.5 -177.5t-131.5 -113.5t-168 -37q-132 0 -226 84 t-94 240z" />
<glyph unicode="L" horiz-adv-x="1923" d="M-25 1100q0 62 20 121t68 116t118.5 99t180 68t244.5 26q83 0 388 -23t495 -28v-15q-178 -18 -232 -80.5t-106 -256.5q-9 -33 -14 -50l-240 -897q-24 -91 13.5 -120t168.5 -29q101 0 189 22t157 58.5t134.5 95t116.5 120.5t108 146h22l-143 -473h-1317v14q57 6 97.5 16 t70 28.5t48 39.5t34.5 58t26.5 73.5t26.5 96.5l6 24l209 778q21 77 21 140q0 113 -80 171t-260 58q-76 0 -151.5 -15t-146 -47.5t-124.5 -78t-86.5 -112t-32.5 -144.5q0 -143 85.5 -220t205.5 -77q82 0 154.5 33.5t120.5 104t48 163.5q0 74 -46.5 122t-118.5 48 q-86 0 -142.5 -51t-56.5 -107q0 -47 39 -47q15 0 45 14.5t49 14.5q17 0 30 -9.5t13 -25.5q0 -20 -22.5 -35.5t-61.5 -15.5q-57 0 -89 30.5t-32 71.5q0 65 60 123.5t159 62.5q84 0 143.5 -51t59.5 -145q0 -101 -52.5 -177.5t-131.5 -113.5t-168 -37q-132 0 -226 84t-94 240z " />
<glyph unicode="M" horiz-adv-x="2447" d="M-25 1092q0 62 20 121t67.5 116t118 99t179.5 68t244 26q101 0 347.5 -20t310.5 -23l143 -1078l620 1078h525v-15q-155 -17 -197 -74t-71 -234q-3 -18 -5 -28l-127 -778q-26 -155 -25 -197q3 -75 58 -106q43 -23 133 -33v-14h-725v14q155 17 197 74t71 234q1 6 1.5 9.5 t1.5 8.5l2 10l166 1002h-15l-798 -1377h-31l-187 1377h-14l-293 -1096q-36 -124 -2.5 -178t166.5 -64v-14h-494v14q92 8 141.5 29t74.5 59t45 113l241 905q21 76 21 140q0 113 -80 171t-260 58q-76 0 -151.5 -15t-146 -47.5t-124.5 -78t-86.5 -112t-32.5 -144.5 q0 -143 85.5 -220t205.5 -77q82 0 154.5 33.5t120.5 104t48 163.5q0 74 -46.5 122t-118.5 48q-86 0 -142.5 -51t-56.5 -107q0 -47 39 -47q15 0 45 14.5t49 14.5q17 0 30 -9.5t13 -25.5q0 -20 -22.5 -35.5t-61.5 -15.5q-57 0 -89 30.5t-32 71.5q0 65 60 123.5t159 62.5 q84 0 143.5 -51t59.5 -145q0 -101 -52.5 -177.5t-131.5 -113.5t-168 -37q-132 0 -226 84t-94 240z" />
<glyph unicode="N" horiz-adv-x="2023" d="M-25 1081q0 62 20 121t67.5 116t118 99t179.5 68t244 26q100 0 274.5 -14t254.5 -18l528 -1094l201 743q42 155 45 196q7 76 -45 107q-40 23 -129 33v15h495v-15q-68 -7 -113 -22t-73.5 -34.5t-49 -59t-33.5 -78.5t-32 -111l-3 -10.5t-2.5 -9.5t-2.5 -11l-217 -809 q-41 -157 -36 -269t47.5 -174t111.5 -62q51 0 81.5 29t30.5 61q0 10 -7.5 18t-16.5 8t-28.5 -9t-29.5 -9q-28 0 -28 25q0 12 14 21t39 9q38 0 57 -19.5t19 -47.5q0 -41 -38 -78t-99 -37q-77 0 -142 59q-53 49 -92 109.5t-82 150.5l-549 1125l-235 -879q-42 -155 -45 -196 q-7 -76 45 -107q40 -23 129 -33v-14h-496v14q160 17 208.5 75t95.5 240l6 21l202 760q21 76 21 139q0 113 -80 171.5t-260 58.5q-76 0 -151.5 -15t-146 -47.5t-124.5 -78.5t-86.5 -112.5t-32.5 -144.5q0 -143 85.5 -220t205.5 -77q82 0 154.5 33.5t120.5 104t48 163.5 q0 74 -46.5 122t-118.5 48q-86 0 -142.5 -50.5t-56.5 -106.5q0 -47 39 -47q15 0 45 14t49 14q17 0 30 -9.5t13 -25.5q0 -20 -22.5 -35.5t-61.5 -15.5q-57 0 -89 31t-32 72q0 65 60 123.5t159 62.5q84 0 143.5 -51.5t59.5 -145.5q0 -76 -30.5 -139.5t-80.5 -103.5t-112.5 -62 t-128.5 -22q-132 0 -226 83.5t-94 239.5z" />
<glyph unicode="O" horiz-adv-x="1624" d="M78 492q0 159 58.5 324.5t173 315t265.5 244.5l-12 -30q-51 -57 -78.5 -134t-27.5 -157q0 -83 30 -154q-42 -112 -87.5 -290t-45.5 -304q0 -315 252 -315q119 0 242.5 111t214 276t148 359.5t57.5 357.5q0 96 -26.5 170t-71.5 119t-101.5 67.5t-120.5 22.5 q-75 0 -147.5 -30t-131.5 -83.5t-95.5 -136t-36.5 -178.5q0 -109 62 -182.5t175 -73.5q82 0 154.5 33.5t121 104t48.5 163.5q0 74 -48 122t-126 48q-86 0 -138.5 -50.5t-52.5 -107.5q0 -47 39 -47q15 0 45 14t49 14q17 0 30 -9t13 -25q0 -20 -22.5 -36t-61.5 -16 q-57 0 -88.5 30.5t-31.5 72.5q0 66 60.5 126t158.5 60q84 0 143 -51t59 -145q0 -101 -52.5 -179t-131.5 -116.5t-168 -38.5q-133 0 -205.5 83.5t-72.5 205.5q0 145 74.5 256.5t194.5 169t263 57.5q79 0 154 -22.5t141 -68t115.5 -109.5t78.5 -153.5t29 -193.5 q0 -141 -39.5 -277t-107 -247.5t-158.5 -206.5t-193.5 -159.5t-212.5 -101t-214 -36.5q-111 0 -208.5 35t-172.5 100.5t-118.5 169t-43.5 232.5z" />
<glyph unicode="P" horiz-adv-x="1818" d="M-25 1096q0 62 20 121t67.5 116t118 99t179.5 68t244 26q53 0 113 -4t148 -12.5t134 -12.5q55 -4 114.5 -7t129 -5.5t92.5 -3.5q2 0 43.5 -3t69 -6t79 -14t88 -25t81 -41t72 -61.5t46.5 -86t19 -114.5q0 -87 -29.5 -156t-84.5 -115.5t-126 -79t-163.5 -50.5t-187 -25 t-204.5 -6l-73 -297q-45 -173 -50 -217q-9 -88 40 -125q45 -33 161 -45v-14h-754v14q158 17 205 73.5t91 232.5q5 20 8 30l196 774q21 89 21 140q0 113 -80 171t-260 58q-96 0 -189.5 -25t-172.5 -72t-128 -125t-49 -175q0 -143 85.5 -220t205.5 -77q82 0 154.5 33.5 t120.5 104t48 163.5q0 74 -46.5 122t-118.5 48q-86 0 -142.5 -51t-56.5 -107q0 -47 39 -47q15 0 45 14.5t49 14.5q17 0 30 -9.5t13 -25.5q0 -20 -22.5 -35.5t-61.5 -15.5q-57 0 -89 30.5t-32 71.5q0 65 60 123.5t159 62.5q84 0 143.5 -51t59.5 -145q0 -101 -52.5 -177.5 t-131.5 -113.5t-168 -37q-132 0 -226 84t-94 240zM1047 735q138 7 249.5 55t180.5 138.5t69 208.5q0 79 -26.5 139.5t-72.5 95.5t-102 52.5t-120 17.5z" />
<glyph unicode="Q" horiz-adv-x="1632" d="M27 -313q75 60 214 116t277.5 98.5t169.5 57.5q-46 -4 -67 -4q-111 0 -208.5 35t-172.5 100.5t-118.5 169t-43.5 232.5q0 159 58.5 324.5t173 315t265.5 244.5l-12 -30q-51 -57 -78.5 -134t-27.5 -157q0 -83 30 -154q-42 -112 -87.5 -290t-45.5 -304q0 -315 252 -315 q119 0 242.5 111t214 276t148 359.5t57.5 357.5q0 96 -26.5 170t-71.5 119t-101.5 67.5t-120.5 22.5q-75 0 -147.5 -30t-131.5 -83.5t-95.5 -136t-36.5 -178.5q0 -109 62 -182.5t175 -73.5q82 0 154.5 33.5t121 104t48.5 163.5q0 74 -48 122t-126 48q-86 0 -138.5 -50.5 t-52.5 -107.5q0 -47 39 -47q15 0 45 14t49 14q17 0 30 -9t13 -25q0 -20 -22.5 -36t-61.5 -16q-57 0 -88.5 30.5t-31.5 72.5q0 66 60.5 126t158.5 60q84 0 143 -51t59 -145q0 -101 -52.5 -179t-131.5 -116.5t-168 -38.5q-133 0 -205.5 83.5t-72.5 205.5q0 145 74.5 256.5 t194.5 169t263 57.5q79 0 154 -22.5t141 -68t115.5 -109.5t78.5 -153.5t29 -193.5q0 -237 -105 -446t-276 -357q-207 -179 -600 -303q122 -22 307 -67t317.5 -75t188.5 -30q108 0 184 41.5t138 132.5l18 -12q-76 -155 -204.5 -237.5t-299.5 -82.5q-96 0 -225 31t-233 67.5 t-217 67.5t-181 31q-94 0 -161 -17t-156 -61z" />
<glyph unicode="R" horiz-adv-x="1990" d="M-25 1100q0 62 20 121t67.5 116t118 99t179.5 68t244 26q116 1 338.5 -15t366.5 -30q5 0 36 -2.5t53.5 -4t62 -7.5t70.5 -13t71 -20.5t70 -29.5t61 -41t51 -54.5t32.5 -69.5t12.5 -86q0 -274 -375 -407q15 -41 43 -124q30 -87 46 -131.5t48.5 -121.5t58.5 -118t68 -94.5 t85.5 -80.5t103.5 -46.5t129 -19.5l-2 -14q-124 -41 -238 -41q-80 0 -149 23t-119.5 60.5t-93 91.5t-71 110.5t-50.5 122.5l-113 340l-164 -5l-94 -352q-45 -162 -45 -209q0 -60 37 -88.5t137 -38.5v-14h-725v14q57 6 97.5 16t70 28.5t48 39.5t34.5 58t26.5 73.5t26.5 96.5 l6 24l207 778q21 77 21 140q0 113 -80 171t-260 58q-96 0 -189.5 -25t-172.5 -72t-128 -125t-49 -175q0 -143 85.5 -220t205.5 -77q82 0 154.5 33.5t120.5 104t48 163.5q0 74 -46.5 122t-118.5 48q-86 0 -142.5 -51t-56.5 -107q0 -47 39 -47q15 0 45 14.5t49 14.5 q17 0 30 -9.5t13 -25.5q0 -20 -22.5 -35.5t-61.5 -15.5q-57 0 -89 30.5t-32 71.5q0 65 60 123.5t159 62.5q84 0 143.5 -51t59.5 -145q0 -101 -52.5 -177.5t-131.5 -113.5t-168 -37q-132 0 -226 84t-94 240zM1047 741q119 1 218 38.5t160.5 98t95 133t33.5 146.5 q0 120 -84 200.5t-239 80.5z" />
<glyph unicode="S" horiz-adv-x="1267" d="M-33 305q0 156 99.5 245t232.5 89q79 0 143 -27.5t103.5 -72.5t60.5 -98.5t21 -108.5q0 -107 -61.5 -163t-147.5 -56q-105 0 -163 52.5t-58 119.5q0 50 33.5 84t93.5 34q39 0 61.5 -15.5t22.5 -35.5q0 -16 -13 -25.5t-30 -9.5q-19 0 -49.5 14.5t-45.5 14.5q-19 0 -31 -18 t-12 -45q0 -55 48 -98.5t147 -43.5q82 0 127 54.5t45 134.5q0 50 -19 98t-54 89t-93 66t-129 25q-120 0 -209.5 -79t-89.5 -218q0 -94 36.5 -171t97.5 -125t135.5 -73.5t154.5 -25.5q76 0 145 23t124 67t87.5 115.5t32.5 159.5q0 59 -17 109t-55 95.5t-69 74t-89 76.5 q-19 15 -28 23q-48 40 -73.5 62t-67 61t-64.5 70t-47.5 71.5t-35.5 84t-11 90.5q0 81 30 156t84.5 133.5t140.5 93.5t189 35q73 0 143.5 -17.5t122.5 -35t78 -17.5q46 0 76.5 20t53.5 68h18q-33 -68 -59.5 -187.5t-36.5 -204.5l-11 -85h-20q4 58 -3 115t-29.5 113.5 t-58.5 99.5t-95.5 69.5t-135.5 26.5q-74 0 -129 -26.5t-83 -67t-41 -78.5t-13 -72q0 -50 23 -99.5t67.5 -97.5t86.5 -84.5t102 -81.5q70 -53 118 -98.5t93.5 -104.5t68.5 -128.5t23 -149.5q0 -102 -33.5 -189t-90.5 -148.5t-133 -105t-160 -64.5t-171 -21q-99 0 -188 28 t-160.5 81t-113.5 138.5t-42 192.5z" />
<glyph unicode="T" horiz-adv-x="1611" d="M-25 1100q0 62 20 121.5t67 116t115 98.5t172.5 68t232.5 26q102 0 437 -25.5t441 -25.5q170 0 301 64t131 147q0 35 -23 57t-59 22q-39 0 -64.5 -23.5t-25.5 -49.5q0 -8 5 -13.5t12 -5.5q4 0 19.5 7.5t25.5 7.5q11 0 18.5 -6.5t7.5 -16.5q0 -11 -12 -21t-33 -10 q-31 0 -48 17.5t-17 42.5q0 34 31.5 64t80.5 30q47 0 80 -31.5t33 -77.5q0 -42 -22 -78.5t-56.5 -77t-72 -93t-75 -149.5t-59.5 -224h-26q6 59 4 106t-13.5 84t-28.5 64.5t-40.5 47.5t-50 33.5t-57 22t-61 13t-63 7.5t-61.5 5h-4l-279 -1043q-48 -173 -53 -218 q-11 -88 39 -124q45 -33 158 -45v-14h-785v14q180 18 234.5 82t107.5 264q7 27 11 41l282 1061q-266 29 -379 29q-133 0 -223 -23q-156 -40 -251 -134.5t-95 -233.5q0 -143 85.5 -220t205.5 -77q82 0 154.5 33.5t120.5 104t48 163.5q0 74 -46.5 122t-118.5 48 q-86 0 -142.5 -51t-56.5 -107q0 -47 39 -47q15 0 45 14.5t49 14.5q17 0 30 -9.5t13 -25.5q0 -20 -22.5 -35.5t-61.5 -15.5q-57 0 -89 30.5t-32 71.5q0 65 60 123.5t159 62.5q84 0 143.5 -51t59.5 -145q0 -101 -52.5 -177.5t-131.5 -113.5t-168 -37q-132 0 -226 84t-94 240z " />
<glyph unicode="U" horiz-adv-x="2037" d="M-25 1100q0 62 20 121t67.5 116t118 99t179.5 68t244 26q87 0 389.5 -23t466.5 -28v-15q-68 -7 -113 -22t-73.5 -34.5t-49 -59t-33.5 -78.5t-32 -111l-3 -10.5t-2.5 -9.5t-2.5 -11l-131 -485q-41 -147 -52.5 -202.5t-11.5 -114.5q0 -45 16.5 -86.5t50.5 -78.5t95 -59 t142 -22q55 0 104 12t87.5 30.5t73.5 51t60 61.5t50 75.5t40 80.5t33.5 88t28 86t24.5 86l117 439q43 163 43 225q0 135 -182 149v15h473v-17q-41 -7 -64 -13t-49 -21.5t-41.5 -36.5t-35.5 -61.5t-37.5 -93t-42.5 -134.5l-144 -518q-25 -86 -39.5 -133t-45.5 -123.5 t-60.5 -120t-79 -97.5t-106 -82.5t-137 -48.5t-177.5 -20q-71 0 -138 13t-129 42t-107.5 71.5t-73 105t-27.5 137.5q0 103 86 428l100 372q21 77 21 140q0 113 -80 171t-260 58q-76 0 -151.5 -15t-146 -47.5t-124.5 -78t-86.5 -112t-32.5 -144.5q0 -143 85.5 -220t205.5 -77 q82 0 154.5 33.5t120.5 104t48 163.5q0 74 -46.5 122t-118.5 48q-86 0 -142.5 -51t-56.5 -107q0 -47 39 -47q15 0 45 14.5t49 14.5q17 0 30 -9.5t13 -25.5q0 -20 -22.5 -35.5t-61.5 -15.5q-57 0 -89 30.5t-32 71.5q0 65 60 123.5t159 62.5q84 0 143.5 -51t59.5 -145 q0 -101 -52.5 -177.5t-131.5 -113.5t-168 -37q-132 0 -226 84t-94 240z" />
<glyph unicode="V" horiz-adv-x="2050" d="M-25 1100q0 52 12 101t38.5 98.5t73.5 90.5t111 72.5t157 49.5t206 18q94 0 385 -23t412 -28v-15q-41 -8 -69.5 -15.5t-53.5 -19.5t-39.5 -25.5t-25.5 -35.5t-14 -47t-2 -63t7 -80.5t17 -102.5l127 -776l440 754q46 79 73.5 137.5t42 100.5t6.5 70.5t-18 45.5t-46.5 28.5 t-65 16.5t-86.5 12v15h584v-17q-90 -20 -137.5 -48t-98.5 -107l-856 -1346l-41 -10l-217 1190q-23 128 -36 166q-37 112 -137 156q-80 34 -210 34q-229 0 -367 -104q-143 -107 -143 -293q0 -143 85.5 -220t205.5 -77q82 0 154.5 33.5t120.5 104t48 163.5q0 74 -46.5 122 t-118.5 48q-86 0 -142.5 -51t-56.5 -107q0 -47 39 -47q15 0 45 14.5t49 14.5q17 0 30 -9.5t13 -25.5q0 -20 -22.5 -35.5t-61.5 -15.5q-57 0 -89 30.5t-32 71.5q0 65 60 123.5t159 62.5q84 0 143.5 -51t59.5 -145q0 -101 -52.5 -177.5t-131.5 -113.5t-168 -37q-132 0 -226 84 t-94 240z" />
<glyph unicode="W" horiz-adv-x="2672" d="M-25 1100q0 52 12 101t38.5 98.5t73.5 90.5t111 72.5t157 49.5t206 18q94 0 385 -23t412 -28v-15q-41 -8 -69.5 -15.5t-53.5 -19.5t-39.5 -25.5t-25.5 -35.5t-14 -47t-2 -63t7 -80.5t17 -102.5l127 -776l377 621l-35 221q-25 151 -45 201q-35 85 -118 110q-22 7 -50 10 v17h686v-15q-55 -10 -89 -20.5t-60.5 -30.5t-37 -43.5t-14 -67.5t2 -95t18.5 -132l92 -727l360 705q27 53 46.5 97t30 80t16 64t1 50t-10.5 38t-23.5 28.5t-34 20.5t-45.5 14.5t-53 10t-62 8.5v15h584v-17q-90 -20 -137.5 -48t-98.5 -107l-725 -1346l-41 -10l-139 860 l-557 -850l-41 -10l-217 1190q-23 128 -36 166q-37 112 -137 156q-80 34 -210 34q-229 0 -367 -104q-143 -107 -143 -293q0 -143 85.5 -220t205.5 -77q82 0 154.5 33.5t120.5 104t48 163.5q0 74 -46.5 122t-118.5 48q-86 0 -142.5 -51t-56.5 -107q0 -47 39 -47q15 0 45 14.5 t49 14.5q17 0 30 -9.5t13 -25.5q0 -20 -22.5 -35.5t-61.5 -15.5q-57 0 -89 30.5t-32 71.5q0 65 60 123.5t159 62.5q84 0 143.5 -51t59.5 -145q0 -101 -52.5 -177.5t-131.5 -113.5t-168 -37q-132 0 -226 84t-94 240z" />
<glyph unicode="X" horiz-adv-x="1972" d="M-25 1100q0 53 11 101.5t35.5 98.5t69 90t106.5 72.5t153.5 50t204.5 17.5q95 0 384 -23t407 -28v-15q-4 -1 -37.5 -6.5t-47 -10t-38 -14.5t-37.5 -26t-19 -39q-8 -32 13 -128.5t45 -166.5l65 -196q230 243 285 308q103 120 119 181q9 32 -10 53.5t-36 27t-58 14.5 q-2 1 -3.5 1.5t-3.5 1t-4 0.5v15h557v-15q-145 -20 -260.5 -90.5t-255.5 -216.5l-313 -328l223 -600q42 -120 75.5 -148.5t162.5 -61.5q4 -1 6 -2t5.5 -1.5t6.5 -1.5v-14h-758v16q98 12 137 32q49 25 62 73q6 12 3.5 39t-6 47t-12.5 52t-15.5 52t-15.5 47t-12 39l-86 262 q-128 -130 -279 -304.5t-169 -239.5q-5 -18 0 -33t21.5 -25.5t29.5 -17.5t40 -12.5t35.5 -7t31.5 -5.5v-14h-615v16q70 10 132 31.5t108.5 46.5t101.5 69.5t93 80.5t102 100l346 352l-162 461q-5 15 -15 44q-11 35 -17.5 52.5t-19 48.5t-23 47t-28.5 40.5t-36.5 37 t-45.5 28.5t-58 23.5t-71.5 13t-88.5 5.5q-235 0 -365 -108q-127 -105 -127 -289q0 -143 85.5 -220t205.5 -77q82 0 154.5 33.5t120.5 104t48 163.5q0 74 -46.5 122t-118.5 48q-86 0 -142.5 -51t-56.5 -107q0 -47 39 -47q15 0 45 14.5t49 14.5q17 0 30 -9.5t13 -25.5 q0 -20 -22.5 -35.5t-61.5 -15.5q-57 0 -89 30.5t-32 71.5q0 65 60 123.5t159 62.5q84 0 143.5 -51t59.5 -145q0 -101 -52.5 -177.5t-131.5 -113.5t-168 -37q-132 0 -226 84t-94 240z" />
<glyph unicode="Y" horiz-adv-x="1923" d="M-25 1100q0 53 11 101.5t35.5 98.5t69 90t106.5 72.5t153.5 50t204.5 17.5q95 0 383.5 -23.5t400.5 -27.5v-15q-105 -24 -118 -29q-52 -19 -62 -64q-12 -55 27 -193l143 -504l234 344q41 60 70.5 105.5t52 85.5t38 68t21.5 52.5t9 40t-6 29.5t-16.5 22t-29.5 16.5 t-38.5 13.5t-49.5 13v15h506v-15q-100 -19 -153.5 -43.5t-93.5 -66t-108 -137.5l-407 -578l-64 -238q-46 -173 -52 -214q-11 -90 36 -127q44 -34 160 -46v-14h-783v14q64 6 109 16t79 33t54 41.5t39 64.5t29 79t30 105q8 31 13 48l57 211l-154 510q-15 52 -28 88t-32.5 78 t-40.5 70t-51.5 56t-67.5 44.5t-86 27t-109 11.5q-231 3 -365 -108q-127 -105 -127 -289q0 -143 85.5 -220t205.5 -77q82 0 154.5 33.5t120.5 104t48 163.5q0 74 -46.5 122t-118.5 48q-86 0 -142.5 -51t-56.5 -107q0 -47 39 -47q15 0 45 14.5t49 14.5q17 0 30 -9.5t13 -25.5 q0 -20 -22.5 -35.5t-61.5 -15.5q-57 0 -89 30.5t-32 71.5q0 65 60 123.5t159 62.5q84 0 143.5 -51t59.5 -145q0 -101 -52.5 -177.5t-131.5 -113.5t-168 -37q-132 0 -226 84t-94 240z" />
<glyph unicode="Z" horiz-adv-x="1392" d="M-195 -59l1328 1323q-80 -29 -172 -29q-95 0 -286 39t-269 39q-63 0 -114.5 -18.5t-87.5 -64.5t-36 -114q0 -79 58.5 -138.5t162.5 -59.5q82 0 130 45.5t48 103.5q0 60 -38.5 92.5t-86.5 32.5q-37 0 -64.5 -20.5t-27.5 -51.5q0 -11 15 -14.5t33 -3.5t33 -8t15 -27 q-1 -14 -14.5 -21.5t-30.5 -7.5q-36 3 -57.5 24.5t-21.5 51.5q0 48 36 76.5t88 28.5q59 0 104.5 -39.5t45.5 -112.5q0 -71 -55.5 -124.5t-153.5 -53.5q-115 0 -185.5 71t-70.5 170q0 49 17.5 98t57 96.5t97 83.5t143.5 58.5t189 22.5q52 0 222 -16.5t253 -16.5 q383 0 383 201q0 37 -23 61.5t-61 24.5q-39 0 -64.5 -24t-25.5 -50q0 -18 16 -18q4 0 19.5 7t25.5 7q11 0 19 -6.5t8 -16.5q0 -11 -12 -20.5t-33 -9.5q-31 0 -48.5 17t-17.5 42q0 34 32 64t81 30q50 0 81.5 -31.5t31.5 -82.5q0 -49 -36 -109t-134 -156q-47 -46 -215.5 -205 t-422 -403t-552.5 -542q155 22 340 22q46 0 125 -2t112 -2q52 0 82 1t72 4.5t68 11.5t60 22t57.5 35.5t50 51.5t49.5 72t45 95l22 -6q-106 -290 -172 -553q-71 2 -206 7t-245.5 8t-209.5 3q-97 0 -134 -0.5t-113.5 -2.5t-113 -7t-87.5 -14t-83 -24t-57 -36z" />
<glyph unicode="[" d="M-72 -356l441 1835h428l-9 -45h-141q-26 0 -40.5 -1t-28.5 -8.5t-20.5 -14.5t-15.5 -29t-14.5 -42.5t-15.5 -62.5l-338 -1444q-9 -44 -12.5 -75.5t23 -49.5t89.5 -18h140l-13 -45h-473z" />
<glyph unicode="\" horiz-adv-x="632" d="M29 1516h104l471 -1557h-100z" />
<glyph unicode="]" d="M-100 -360l8 45h141q38 0 56 3t33.5 22.5t23 44.5t22.5 87l338 1444q9 44 12.5 76t-23 50t-89.5 18h-139l12 45h473l-440 -1835h-428z" />
<glyph unicode="^" horiz-adv-x="1146" d="M160 758l528 760h113l221 -791l-23 -10l-288 581l-531 -557z" />
<glyph unicode="_" horiz-adv-x="1126" d="M23 -203h1081v-90h-1081v90z" />
<glyph unicode="`" d="M217 1415q0 34 24 57t60 23q55 0 105 -68l225 -299l-13 -14l-333 213q-68 40 -68 88z" />
<glyph unicode="a" horiz-adv-x="1148" d="M25 252q-5 100 27.5 205.5t94.5 196.5t142.5 163.5t178.5 114t196 41.5q146 0 272 -92q30 9 67 34t59 45l21 21l13 -4l-301 -770q-15 -41 -15 -68q3 -39 45 -39q45 0 129.5 72.5t204.5 228.5l15 -10q-37 -61 -91.5 -129t-119.5 -133.5t-135.5 -108.5t-125.5 -43 q-51 0 -82 18.5t-41 53t-9.5 68t8.5 78.5q-40 -104 -121 -161t-172 -57q-103 0 -178 72.5t-82 202.5zM281 311q3 -72 36 -114.5t97 -42.5q66 0 116.5 46t47.5 119q-3 35 -27 57.5t-59 22.5q-38 0 -63.5 -24.5t-25.5 -48.5q4 -19 19 -19q4 0 19.5 7.5t25.5 7.5q11 0 19 -6.5 t8 -16.5q0 -12 -11.5 -20.5t-33.5 -8.5q-30 0 -48 17t-20 41q-2 34 28.5 64t79.5 30q47 0 80.5 -31.5t36.5 -77.5q0 -8 -4 -28l229 587q-54 66 -131 66q-82 0 -163 -66t-137.5 -161.5t-89.5 -205t-29 -194.5z" />
<glyph unicode="b" horiz-adv-x="1130" d="M41 143l295 1035q43 155 43 186q0 32 -10.5 53t-31.5 31t-44.5 14t-56.5 4v17q34 3 87.5 9t167.5 26t168 43l-204 -756h22q38 85 124 144t187 59q108 0 174 -72t66 -193q0 -138 -59 -278.5t-154 -248.5t-226 -176.5t-265 -68.5q-94 0 -164 22t-107 54q-19 15 -22 28.5 t10 67.5zM264 94q0 -33 12 -54t31 -28.5t30 -9.5t23 -2q76 0 146 55.5t120 140.5t87.5 184t56 188.5t18.5 152.5q0 176 -126 176q-58 0 -110 -47t-52 -119q0 -35 23.5 -57.5t58.5 -22.5q38 0 64 25t26 49q0 18 -17 18q-4 0 -19.5 -7t-25.5 -7q-11 0 -18.5 6.5t-7.5 16.5 q0 11 12.5 19.5t34.5 8.5q30 0 46.5 -16.5t16.5 -40.5q0 -34 -31.5 -64t-80.5 -30q-47 0 -78 30.5t-33 73.5q-66 -110 -131 -332q-22 -74 -41 -148t-27 -113.5t-8 -45.5z" />
<glyph unicode="c" horiz-adv-x="991" d="M25 340q0 114 47.5 233t128 215.5t197.5 158t245 61.5q132 0 209.5 -54.5t77.5 -134.5q0 -45 -28 -77.5t-71 -32.5q-58 0 -91 47t-33 129q0 8 1 24t1 23q0 19 -15 33t-45 14q-69 0 -141 -61.5t-126 -153.5t-89 -205.5t-35 -212.5q0 -131 62.5 -211t193.5 -80 q114 0 193 72t79 164q0 75 -45 117.5t-104 42.5q-57 0 -103.5 -40t-46.5 -104q0 -38 23 -61t59 -23q38 0 64 25t26 49q0 18 -14 18q-4 0 -20 -7t-27 -7q-10 0 -18.5 6.5t-8.5 16.5q0 11 12.5 19.5t34.5 8.5q30 0 47 -17t17 -40q0 -34 -32 -64t-81 -30q-44 0 -75 28t-31 78 q0 74 54 121t120 47q69 0 123.5 -49t54.5 -139q0 -134 -113.5 -231t-293.5 -97q-162 0 -272.5 104t-110.5 277z" />
<glyph unicode="d" horiz-adv-x="1146" d="M12 252q0 127 50.5 257t134 232t199.5 167t237 65q114 0 176 -62q20 76 54 203.5t48.5 185.5t14.5 74q0 51 -34 71.5t-108 20.5v17l416 51l-369 -1366q-4 -20 -4 -29q0 -15 7.5 -24t19.5 -9q42 0 125.5 77.5t175.5 217.5l12 -10q-33 -61 -82.5 -129t-109.5 -133.5 t-127.5 -108.5t-122.5 -43q-54 0 -82.5 34.5t-28.5 94.5q0 81 35 207h-16q-23 -50 -39 -81.5t-53 -86t-73 -87.5t-92 -59t-118 -26q-103 0 -174.5 74.5t-71.5 204.5zM270 311q0 -73 31 -115t94 -42q66 0 119 46t53 119q0 35 -23.5 57.5t-58.5 22.5q-38 0 -64 -25t-26 -48 q0 -8 5 -13.5t12 -5.5q4 0 19.5 7.5t25.5 7.5q11 0 18.5 -6.5t7.5 -16.5q0 -11 -12.5 -20t-34.5 -9q-30 0 -46.5 17t-16.5 41q0 34 31.5 64t80.5 30q46 0 77.5 -30.5t33.5 -74.5q51 80 116.5 254t65.5 226q0 11 -4 29.5t-14.5 46t-35.5 46.5t-60 19q-79 0 -154.5 -65.5 t-126.5 -162t-82 -204.5t-31 -195z" />
<glyph unicode="e" horiz-adv-x="970" d="M14 283q0 91 33.5 192.5t95.5 195t141.5 169.5t181 122t204.5 46q31 0 64.5 -8.5t68.5 -27.5t57.5 -57t22.5 -90q0 -71 -32.5 -127t-84 -92t-114 -65.5t-125 -54t-114 -49.5t-84 -60t-32.5 -78q0 -35 23.5 -57.5t58.5 -22.5q38 0 64 25t26 49q0 18 -16 18q-4 0 -19.5 -7 t-25.5 -7q-11 0 -19 6t-8 16q0 11 12 21t33 10q31 0 48.5 -17t17.5 -42q0 -34 -32 -64t-81 -30q-47 0 -79 31t-32 77q0 -48 7.5 -86t18.5 -62.5t29 -42t32.5 -25.5t37 -13t35 -5.5t31.5 -0.5q156 0 383 213l12 -13q-29 -31 -39 -41t-51 -49.5t-68 -59.5t-76 -53.5t-90 -50.5 t-95 -31t-105 -14q-153 0 -234.5 87.5t-81.5 224.5zM274 352q15 41 55 78.5t88 64t101 61.5t96 71.5t71 95t28 129.5q0 61 -25.5 93t-71.5 32q-44 0 -93.5 -41.5t-97 -117t-88 -197.5t-63.5 -269z" />
<glyph unicode="f" horiz-adv-x="675" d="M-518 -215q0 92 55 142t131 50q72 0 125 -43.5t53 -117.5q0 -58 -33.5 -88.5t-80.5 -30.5q-46 0 -79.5 26.5t-33.5 71.5q0 26 17.5 44t48.5 18q23 0 36 -10.5t13 -22.5q0 -10 -8.5 -16.5t-20.5 -6.5q-11 0 -26 7.5t-21 7.5q-14 0 -14 -21q0 -32 26.5 -51.5t61.5 -19.5 q37 0 62.5 23t25.5 69q0 61 -45.5 98t-106.5 37q-64 0 -108.5 -41t-44.5 -119q0 -77 59 -133.5t174 -56.5q94 0 175.5 91.5t127.5 295.5l195 862h-203l6 22q40 3 113.5 24.5t107.5 43.5q19 87 49.5 170t80.5 165.5t111 143.5t145.5 99t179.5 38q38 0 77 -7.5t77.5 -23 t62.5 -45.5t24 -69q0 -44 -32.5 -74t-71.5 -30q-36 0 -62.5 15.5t-40 39t-27.5 51t-25 51t-33 39t-52 15.5q-34 0 -64 -26t-50.5 -64.5t-38.5 -88t-28.5 -89.5t-19.5 -77q-3 -13 -4 -18l-49 -215h314l-27 -90h-301l-160 -688q-29 -126 -75.5 -229t-100 -170.5t-116 -113 t-123 -65.5t-121.5 -20q-142 0 -214.5 65t-72.5 156z" />
<glyph unicode="g" horiz-adv-x="1105" d="M-158 -283q0 62 46 111t112 82l274 133q-28 -4 -43 -4q-96 0 -150 71.5t-54 176.5q0 113 42.5 224.5t112.5 199t156.5 155.5t179 105t174.5 37q45 0 83.5 -7.5t71 -24t44 -24t35.5 -24.5q29 18 78.5 38t81.5 33.5t57.5 40.5t25.5 64q0 35 -23.5 57.5t-58.5 22.5 q-39 0 -64.5 -24t-25.5 -50q0 -18 17 -18q4 0 19.5 7t25.5 7q11 0 18.5 -6.5t7.5 -16.5q0 -11 -12 -20.5t-33 -9.5q-31 0 -48 17t-17 42q0 34 31.5 64t80.5 30q47 0 80 -31t33 -77q0 -35 -16.5 -67.5t-32.5 -49t-52.5 -47.5t-47.5 -41q-51 -47 -96 -182t-62 -293l-21 -199 q-13 -141 -26 -195q-43 -170 -191 -294q-116 -97 -252 -165.5t-194 -68.5q-57 0 -116 10.5t-118 34t-96 69t-37 107.5zM63 -217q0 -46 28 -81t70.5 -52.5t82 -26t73.5 -8.5q54 0 97 10.5t74.5 29t56 51t41 68t29.5 88.5t20.5 105t15.5 125l19 170q12 119 43 234l-15 6 q-57 -116 -112 -199.5t-119 -147t-127.5 -108.5t-155.5 -98q-3 -2 -17.5 -10t-20 -11.5t-19 -13t-20.5 -17t-17 -20.5t-14.5 -26t-8.5 -30.5t-4 -37.5zM283 307q0 -119 86 -119q58 0 132.5 71t153.5 226l205 404q-50 86 -143 86q-69 0 -148.5 -74t-141 -178t-103 -219.5 t-41.5 -196.5z" />
<glyph unicode="h" horiz-adv-x="1185" d="M55 246l289 907q51 154 55 215q5 92 -139 88v19q201 23 262 34q301 56 301 179q0 35 -23 57t-59 22q-39 0 -64.5 -23.5t-25.5 -49.5q0 -8 5 -13.5t12 -5.5q4 0 19.5 7.5t25.5 7.5q11 0 18.5 -6.5t7.5 -16.5q0 -11 -12 -21t-33 -10q-31 0 -48 17.5t-17 42.5q0 34 31.5 64 t80.5 30q47 0 80 -31.5t33 -77.5q0 -36 -18 -70.5t-38.5 -54.5t-54.5 -50t-49 -46q-12 -13 -23.5 -30.5t-21.5 -39t-18 -40t-16.5 -42.5t-13 -37.5t-10.5 -34.5t-7 -24l-203 -632h25q6 9 32.5 51t42 66t48.5 69t58.5 73t63.5 63.5t72 56t77 35t85 14.5q64 0 106.5 -36 t48.5 -104q6 -86 -61 -290l-133 -408q-8 -28 -8 -47q0 -27 28 -27q82 0 332 299l12 -10q-42 -63 -97 -129t-123.5 -133t-143 -109.5t-135.5 -42.5q-45 0 -79.5 26.5t-37.5 70.5q-3 59 20 120l185 564q44 155 -33 155q-50 0 -121 -67.5t-136.5 -166t-122 -208t-85.5 -195.5 l-96 -276q-52 -23 -107 -23q-25 0 -42.5 6.5t-27 19t-15 26.5t-4.5 34.5t3 38t8.5 41.5t11.5 39.5t12.5 38z" />
<glyph unicode="i" horiz-adv-x="630" d="M20 92q0 45 70 232l158 417q24 65 24 105q0 41 -29 57.5t-93 18.5v18q105 14 195.5 35t177.5 56t148.5 80t98.5 109t37 140q0 82 -51 132t-119 50q-64 0 -111 -37q9 2 15 2q53 0 90 -36.5t37 -88.5q0 -56 -41 -95.5t-99 -39.5q-57 0 -88.5 38.5t-31.5 88.5q0 85 70.5 140 t158.5 55q81 0 140 -56t59 -151q0 -139 -131 -270q-89 -89 -127 -139q-66 -88 -105 -193l-141 -381q-72 -191 -72 -236q0 -53 37 -53q85 0 346 287l10 -10q-210 -283 -391 -366q-65 -30 -121 -30q-37 0 -62.5 12t-37.5 32t-16.5 38.5t-4.5 38.5z" />
<glyph unicode="j" horiz-adv-x="614" d="M-481 -270q0 42 32 71t68 29q43 0 72.5 -21.5t45.5 -52.5t31 -62.5t39.5 -53t59.5 -21.5q30 0 56.5 22t43.5 50.5t34.5 76.5t25 78.5t19 79t13.5 56.5q211 804 211 845q0 50 -31 74t-110 23v16q105 14 195.5 35t177.5 56t148.5 80t98.5 109t37 140q0 82 -51 132t-119 50 q-63 0 -110 -37q8 2 14 2q53 0 90 -36.5t37 -88.5q0 -56 -40.5 -95.5t-98.5 -39.5q-57 0 -89 39t-32 88q0 85 70.5 140t158.5 55q81 0 140 -56t59 -151q0 -139 -131 -270q-36 -36 -57 -59.5t-51 -65.5t-52.5 -93t-38.5 -114l-157 -604q-18 -79 -46.5 -154.5t-77 -154 t-109 -136t-146.5 -94.5t-185 -37q-38 0 -78 8t-78.5 24.5t-63.5 47t-25 70.5z" />
<glyph unicode="k" horiz-adv-x="1077" d="M55 246l289 907q51 154 55 215q5 92 -139 88v19q201 23 262 34q301 56 301 179q0 35 -23 57t-59 22q-39 0 -64.5 -23.5t-25.5 -49.5q0 -8 5 -13.5t12 -5.5q4 0 19.5 7.5t25.5 7.5q11 0 18.5 -6.5t7.5 -16.5q0 -11 -12 -21t-33 -10q-31 0 -48 17.5t-17 42.5q0 34 31.5 64 t80.5 30q47 0 80 -31.5t33 -77.5q0 -36 -18 -70.5t-38.5 -54.5t-54.5 -50t-49 -46q-12 -13 -23.5 -30.5t-21.5 -39t-18 -40t-16.5 -42.5t-13 -37.5t-10.5 -34.5t-7 -24l-199 -616h14q32 62 77 127.5t103.5 132.5t128.5 109.5t134 42.5q71 0 111 -44t40 -116 q0 -31 -9.5 -60.5t-22 -52.5t-37 -47t-42.5 -39.5t-52 -37t-52 -31.5t-55 -29.5t-49 -26.5l10 -141q19 -270 129 -270q60 0 143 74t195 208l12 -10q-41 -62 -98.5 -129t-127.5 -133.5t-146 -109t-138 -42.5q-169 0 -176 414q-97 -79 -229 -268l-43 -123q-52 -23 -107 -23 q-25 0 -42.5 6.5t-27 19t-15 26.5t-4.5 34.5t3 38t8.5 41.5t11.5 39.5t12.5 38zM266 219q115 140 256 242l84 59q42 30 68 51.5t59 55.5t49.5 72.5t16.5 80.5q0 38 -22 62t-56 24q-75 0 -166 -102q-93 -105 -176 -272.5t-113 -272.5z" />
<glyph unicode="l" horiz-adv-x="634" d="M29 92q0 52 53 232q9 33 93 284t156 482t75 278q5 92 -140 88v19q201 23 262 34q301 56 301 179q0 35 -23 57t-58 22q-39 0 -65 -23.5t-26 -49.5q0 -8 5 -13.5t12 -5.5q4 0 19.5 7.5t25.5 7.5q11 0 18.5 -6.5t7.5 -16.5q0 -11 -12 -21t-33 -10q-31 0 -48 17.5t-17 42.5 q0 34 32 64t81 30q47 0 79.5 -31.5t32.5 -77.5q0 -36 -18 -70.5t-38.5 -54.5t-54.5 -50t-49 -46q-12 -13 -23.5 -30.5t-21.5 -39t-18 -40t-16.5 -42.5t-13 -37.5t-10.5 -34.5t-7 -24l-268 -833q-58 -193 -60 -236q-1 -25 10 -39t31 -14q85 0 346 287l10 -10 q-293 -396 -505 -396q-125 0 -125 121z" />
<glyph unicode="m" horiz-adv-x="1816" d="M-92 702q0 43 17 84t58.5 82t104 71.5t162.5 49.5t225 19q81 0 201 -13l-164 -415h23q6 8 30 44.5t38.5 57.5t43.5 60.5t52 65t55 60t62.5 56.5t64.5 43t70.5 31t72.5 10q63 0 101 -36t39 -104q0 -84 -79 -290q4 6 30 44.5t39.5 58t43.5 60.5t52.5 65.5t55.5 60t63.5 57 t65 43t71.5 31.5t73 10q62 0 102.5 -36.5t40.5 -103.5q0 -17 -2.5 -36.5t-9 -44.5t-10.5 -41.5t-15 -47t-14.5 -40.5t-16.5 -43.5t-14 -36.5l-163 -416q-9 -21 -9 -39q0 -27 29 -27q82 0 332 299l12 -10q-41 -62 -98 -129t-127 -133.5t-145.5 -109t-137.5 -42.5 q-45 0 -77.5 26.5t-32.5 70.5q0 46 28 120l228 564q9 24 14.5 46t8 49t-8 43.5t-35.5 16.5q-63 0 -165 -113t-190 -259.5t-134 -264.5l-113 -276q-51 -23 -106 -23q-40 0 -61 17.5t-24 43.5t4 61t18 66t24 63q7 17 10 24l203 506q9 22 15 45.5t8.5 49.5t-8 43t-34.5 17 q-64 0 -166 -113t-189.5 -259.5t-133.5 -264.5l-113 -276q-51 -23 -106 -23q-40 0 -61 17.5t-24 43.5t4 61t18 66t24 63q7 17 10 24l172 444q49 120 49 164q0 39 -35.5 62t-105.5 20q-156 -7 -236 -77.5t-80 -160.5q0 -67 39.5 -102t96.5 -35q64 0 113.5 40.5t49.5 107.5 q0 35 -23 57t-58 22q-38 0 -64.5 -25t-26.5 -48q0 -19 15 -19q4 0 20 7.5t27 7.5q10 0 18 -6.5t8 -16.5q0 -11 -12.5 -20t-34.5 -9q-30 0 -46.5 17t-16.5 41q0 34 32 64t81 30q44 0 75 -27.5t31 -74.5q0 -68 -53 -119t-140 -51q-68 0 -111.5 47t-43.5 116z" />
<glyph unicode="n" horiz-adv-x="1290" d="M-92 702q0 43 17 84t58.5 82t104.5 71.5t164 49.5t227 19q81 0 201 -13l-164 -415h25q5 7 35.5 51t47.5 66.5t53.5 68.5t63.5 73t68 63.5t76.5 56.5t79.5 34.5t86 14.5q64 0 104.5 -36t40.5 -104q0 -86 -82 -290l-164 -416q-8 -19 -8 -39q0 -27 29 -27q82 0 332 299 l12 -10q-41 -62 -98.5 -129t-127.5 -133.5t-146 -109t-138 -42.5q-45 0 -78 26.5t-33 70.5q0 43 29 120l223 564q25 67 25 102q0 53 -45 53q-50 0 -125.5 -67.5t-148.5 -166t-137 -208t-99 -195.5l-113 -276q-51 -23 -106 -23q-40 0 -61 17.5t-24 43.5t4 61t18 66t24 63 q7 17 10 24l172 444q49 120 49 164q0 39 -35.5 62t-105.5 20q-156 -7 -236 -77.5t-80 -160.5q0 -67 39.5 -102t96.5 -35q64 0 113.5 40.5t49.5 107.5q0 35 -23 57t-58 22q-38 0 -64.5 -25t-26.5 -48q0 -19 15 -19q4 0 20 7.5t27 7.5q10 0 18 -6.5t8 -16.5q0 -11 -12.5 -20 t-34.5 -9q-30 0 -46.5 17t-16.5 41q0 34 32 64t81 30q44 0 75 -27.5t31 -74.5q0 -68 -53 -119t-140 -51q-68 0 -111.5 47t-43.5 116z" />
<glyph unicode="o" horiz-adv-x="1097" d="M27 326q0 160 87 321.5t232 257.5l-12 -31q-60 -76 -60 -180q0 -91 43 -145q-1 -5 -12.5 -45t-19 -68.5t-17.5 -72t-15 -84t-5 -74.5q0 -109 32.5 -157t94.5 -48q97 0 192 120.5t151 289t56 313.5q0 124 -51 186t-135 62q-103 0 -179.5 -78t-76.5 -201q0 -71 40.5 -119.5 t112.5 -48.5q81 0 130 52t49 143q0 47 -30 78.5t-73 31.5q-49 0 -82 -32.5t-33 -69.5q0 -11 7 -20t18 -9q10 0 29.5 9.5t31.5 9.5q13 0 22 -6.5t9 -16.5q0 -15 -14.5 -25t-42.5 -10q-39 0 -60.5 20t-21.5 48q0 43 38.5 84t98.5 41q49 0 87 -35t38 -98q0 -103 -55 -161 t-146 -58q-89 0 -135.5 55t-46.5 137q0 144 95.5 231t240.5 87q66 0 128.5 -24t114 -67.5t82.5 -114t31 -155.5q0 -138 -56.5 -266.5t-145 -217t-197 -141.5t-211.5 -53q-99 0 -178.5 39t-129.5 121.5t-50 194.5z" />
<glyph unicode="p" horiz-adv-x="1277" d="M-131 -483q76 8 109 39.5t63 130.5l297 983q35 122 35 164q0 37 -32 59t-95 22q-78 0 -140.5 -22t-99 -57.5t-55.5 -76t-19 -81.5q0 -67 39.5 -102t96.5 -35q64 0 113.5 40t49.5 107q0 35 -23 57.5t-58 22.5q-38 0 -64.5 -25.5t-26.5 -48.5q0 -18 15 -18q4 0 20 7t27 7 q10 0 18 -6t8 -16q0 -11 -12.5 -20t-34.5 -9q-30 0 -46.5 16.5t-16.5 40.5q0 34 32 64.5t81 30.5q44 0 75 -28t31 -75q0 -68 -53 -119t-140 -51q-68 0 -111.5 47.5t-43.5 116.5q0 156 186 240q76 34 203.5 63t235 57.5t161.5 67.5l-59 -195q142 93 283 93q129 0 193.5 -81.5 t64.5 -215.5q0 -92 -29.5 -194.5t-87.5 -199t-134.5 -174t-179 -125t-213.5 -47.5q-44 0 -89 17.5t-76 46.5q-6 -21 -23 -75.5t-29 -95t-26 -88t-22.5 -80t-10.5 -46.5q-7 -55 34.5 -77t115.5 -24v-16l-537 -33v17zM403 117q0 -61 35.5 -87t77.5 -26q66 0 132 53.5 t116.5 138t90 184t60.5 198t21 174.5q0 94 -44.5 131t-103.5 37q-87 0 -170 -52l-159 -528q-1 -4 -12 -40t-19.5 -67t-16.5 -66t-8 -50z" />
<glyph unicode="q" horiz-adv-x="1116" d="M25 272q0 133 59.5 265.5t163.5 242.5q81 87 181.5 140t191.5 53q51 0 92 -12q82 -26 127 -84q23 53 64 92.5t85 59.5t90.5 39t82.5 34.5t59.5 43t23.5 66.5q0 35 -23.5 57.5t-58.5 22.5q-39 0 -64.5 -23.5t-25.5 -49.5q0 -8 5 -13.5t12 -5.5q4 0 19.5 7t25.5 7 q26 0 26 -22q0 -11 -12 -21t-33 -10q-31 0 -48 17.5t-17 42.5q0 34 31.5 64t80.5 30q47 0 80 -31.5t33 -77.5q0 -35 -16.5 -67.5t-33 -49t-52.5 -47t-48 -41.5q-10 -9 -20 -22t-17.5 -25t-16.5 -31.5t-15 -32t-14.5 -37t-13 -36t-12.5 -39t-11 -37t-11 -38.5t-10 -35 q-291 -946 -301 -1018q-4 -30 8 -51t36.5 -31.5t50 -14.5t55.5 -4v-16l-568 -35v17q85 6 131 48t78 146l154 488h-25q-43 -70 -85.5 -116t-106 -78t-138.5 -32q-61 0 -107.5 22t-72.5 54t-42.5 75.5t-21.5 79t-5 70.5zM281 258q0 -27 1.5 -45.5t7.5 -44t18 -41.5t34.5 -27.5 t54.5 -11.5q63 0 124.5 59.5t106.5 147.5t80.5 186.5t54 179t19.5 121.5q2 56 -23.5 97t-78.5 41q-69 0 -144 -78.5t-129.5 -186.5t-90 -219t-35.5 -178z" />
<glyph unicode="r" horiz-adv-x="962" d="M-88 719q0 42 15.5 80.5t55 77.5t99.5 67.5t156 46t217 17.5q82 0 202 -13l-127 -399h25q96 180 154 257q112 148 217 148q58 0 95.5 -36.5t37.5 -90.5q0 -47 -31 -81.5t-84 -34.5q-39 0 -71 15t-53.5 29.5t-35.5 14.5q-32 0 -85 -65t-99.5 -147t-73.5 -150 q-45 -112 -67 -185l-88 -276q-48 -23 -103 -23q-94 0 -94 95q0 21 5 49t9 43t15.5 50.5t11.5 37.5l129 444q3 11 11.5 38.5t12.5 41t7.5 33t3.5 33.5q0 100 -133 100q-79 0 -141 -20t-97 -52.5t-53 -70t-18 -76.5q0 -75 43.5 -115.5t103.5 -40.5q59 0 104 37t45 98 q0 40 -24.5 66t-63.5 26q-35 0 -58.5 -23t-23.5 -48q0 -21 17 -21q4 0 18 7.5t25 7.5q10 0 19 -6.5t10 -16.5q0 -12 -11.5 -20.5t-34.5 -8.5q-32 0 -48.5 19t-16.5 45q0 34 28 61t74 27q47 0 81 -32t34 -85q0 -64 -47.5 -109.5t-128.5 -45.5q-73 0 -121.5 52.5t-48.5 127.5z " />
<glyph unicode="s" horiz-adv-x="866" d="M-47 193q0 81 53.5 126.5t126.5 45.5q71 0 123.5 -43.5t52.5 -118.5q0 -49 -29.5 -83t-82.5 -34t-84 30t-31 66q0 26 17 44t48 18q23 0 36.5 -10.5t13.5 -22.5q0 -10 -8.5 -16.5t-20.5 -6.5q-11 0 -26 7.5t-21 7.5q-15 0 -15 -21q0 -25 24.5 -48t70.5 -23q38 0 60 27 t22 65q0 64 -45 99.5t-107 35.5q-60 0 -104.5 -37.5t-44.5 -105.5q0 -78 68 -137.5t196 -59.5q82 0 141 50.5t59 135.5q0 26 -3 49t-12.5 45t-14.5 35t-22.5 35t-22.5 28t-28 30.5t-26 27.5q-35 37 -46.5 49.5t-40 48t-39.5 59t-22 60.5t-11 74q0 89 58 159t143.5 105 t177.5 35q127 0 194.5 -52t67.5 -116q0 -35 -24 -64.5t-60 -29.5q-90 0 -140 110q-13 29 -19.5 42t-20 33t-28.5 28t-34 8q-54 0 -94.5 -47t-40.5 -113q0 -33 11 -64.5t38.5 -67t42.5 -52t55 -57.5q4 -4 26.5 -27t29 -30t25.5 -29t25.5 -34t19.5 -35t18 -42.5t9.5 -45.5 t4.5 -54q0 -60 -22.5 -112.5t-60.5 -89.5t-87 -63.5t-102.5 -39.5t-106.5 -13q-151 0 -231 68.5t-80 157.5z" />
<glyph unicode="t" horiz-adv-x="741" d="M49 850l12 45l234 45l80 285l-80 6l4 16l78 8q62 5 129.5 24t129 47.5t101 70.5t39.5 88q0 35 -23.5 57.5t-58.5 22.5q-39 0 -64.5 -24t-25.5 -50q0 -18 17 -18q4 0 19.5 7t25.5 7q11 0 18.5 -6.5t7.5 -16.5q0 -11 -12 -20.5t-33 -9.5q-31 0 -48 17t-17 42q0 34 31.5 64 t80.5 30q47 0 80 -31t33 -77q0 -35 -16.5 -67.5t-33 -49t-52.5 -47t-48 -41.5q-11 -10 -21.5 -23t-20.5 -32t-17.5 -33t-17 -40.5t-14.5 -39t-14.5 -44t-12 -40.5t-12.5 -43.5t-11 -38.5h279l-23 -90h-285l-137 -471q-57 -189 -59 -236q-1 -25 10 -39t31 -14q85 0 346 287 l10 -10q-293 -396 -506 -396q-125 0 -125 121q0 15 3.5 36t11.5 51.5t12.5 47t16 54.5t12.5 43l155 526h-219z" />
<glyph unicode="u" horiz-adv-x="1306" d="M-92 702q0 65 37 123.5t98 92.5q78 44 174.5 54.5t231 9.5t229.5 13l-248 -659q-47 -125 -47 -174q0 -64 59 -64q43 0 112 57.5t121 118.5t77 101q39 63 69 120t42.5 86.5t26.5 67.5t19 49l113 277q51 22 106 22q76 0 76 -75q0 -18 -3.5 -39t-12 -47t-13.5 -41t-16.5 -44 t-13.5 -34l-133 -365q-17 -48 -39.5 -128t-22.5 -89q0 -39 37 -39q82 0 332 299l12 -10q-42 -63 -96.5 -129t-121 -132.5t-138.5 -108.5t-131 -42q-117 0 -117 117q0 84 72 254h-25q-62 -84 -104 -136.5t-89 -102t-86.5 -75.5t-84.5 -41.5t-95 -15.5q-83 0 -120 46t-37 118 q0 64 45 185l102 276q70 187 70 244q0 47 -38.5 71.5t-100.5 24.5q-69 0 -137 -27t-117.5 -83.5t-49.5 -129.5q0 -67 39.5 -102t96.5 -35q64 0 113.5 40.5t49.5 107.5q0 35 -23 57t-58 22q-38 0 -64.5 -25t-26.5 -48q0 -19 15 -19q4 0 20 7.5t27 7.5q10 0 18 -6.5t8 -16.5 q0 -11 -12.5 -20t-34.5 -9q-30 0 -46.5 17t-16.5 41q0 34 32 64t81 30q44 0 75 -27.5t31 -74.5q0 -68 -53 -119t-140 -51q-68 0 -111.5 47t-43.5 116z" />
<glyph unicode="v" horiz-adv-x="1069" d="M-96 713q0 41 15 79.5t54 77.5t98.5 68t156 47.5t218.5 18.5q8 0 26.5 -1.5t27.5 -1.5q51 -195 59 -362q8 -148 8 -428q196 218 263 322t67 161q0 26 -15.5 50.5t-34.5 42t-34.5 47.5t-15.5 65q0 53 33 83t79 30q50 0 87.5 -36.5t37.5 -101.5q0 -74 -34.5 -159.5 t-90.5 -168.5t-147 -184.5t-182.5 -191.5t-217.5 -207l-18 8l8 287q0 11 1 42.5t1 51.5q0 274 -32 432q-18 86 -43 114t-74 28q-126 0 -201.5 -65.5t-75.5 -149.5q0 -75 43.5 -115.5t104.5 -40.5q59 0 104 37t45 98q0 40 -24.5 66t-63.5 26q-35 0 -58.5 -23t-23.5 -48 q0 -21 17 -21q4 0 18 7.5t25 7.5q10 0 18.5 -6.5t9.5 -16.5q0 -29 -45 -29q-32 0 -48.5 19t-16.5 45q0 34 28 61t74 27q47 0 81 -32t34 -85q0 -64 -47.5 -110t-128.5 -46q-72 0 -121 53t-49 128z" />
<glyph unicode="w" horiz-adv-x="1597" d="M-96 713q0 41 15 79.5t54 77.5t98.5 68t156 47.5t218.5 18.5q8 0 26.5 -1.5t27.5 -1.5q30 -118 46 -266t18.5 -238.5t2.5 -228.5q274 478 428 729l37 11l76 -789q60 70 100.5 120t96 123.5t85 129.5t29.5 90q0 33 -23.5 67.5t-47 71t-23.5 74.5q0 54 35 84.5t82 30.5 q49 0 85 -33t36 -94q0 -75 -56 -187.5t-131 -216t-173.5 -219t-159.5 -180.5t-113 -117l-23 8l-55 705q-79 -137 -114.5 -198t-104.5 -173.5t-129 -193t-121 -148.5l-18 8l2 287q-7 331 -45 526q-16 86 -42 114t-75 28q-126 0 -201.5 -65.5t-75.5 -149.5q0 -75 43.5 -115.5 t104.5 -40.5q59 0 104 37t45 98q0 40 -24.5 66t-63.5 26q-35 0 -58.5 -23t-23.5 -48q0 -21 17 -21q4 0 18 7.5t25 7.5q10 0 18.5 -6.5t9.5 -16.5q0 -29 -45 -29q-32 0 -48.5 19t-16.5 45q0 34 28 61t74 27q47 0 81 -32t34 -85q0 -64 -47.5 -110t-128.5 -46q-72 0 -121 53 t-49 128z" />
<glyph unicode="x" horiz-adv-x="1118" d="M-74 713q0 42 16.5 81.5t58 79t105 68.5t166 47.5t232.5 18.5q69 -122 123 -353q155 203 234.5 277t142.5 74q70 0 99.5 -31t29.5 -76q0 -39 -30.5 -73.5t-76.5 -34.5q-42 0 -81 23.5t-64 23.5q-29 0 -68.5 -31t-65.5 -62t-64.5 -82t-43.5 -57q21 -131 44.5 -228 t43.5 -151t42 -86t38.5 -41.5t34.5 -9.5q58 0 115 62.5t130 183.5l15 -8q-71 -161 -179 -259t-208 -98q-33 0 -58.5 8.5t-54 33.5t-51.5 68t-45.5 115.5t-40.5 172.5q-52 -78 -82 -122.5t-65.5 -94t-58 -74t-49.5 -49.5t-50 -35t-49.5 -16.5t-57.5 -6.5q-57 0 -85.5 29.5 t-28.5 71.5q0 44 29.5 78t76.5 34q41 0 80.5 -22.5t60.5 -22.5q40 0 81.5 31t70.5 74l111 168q-29 169 -54.5 271t-55.5 156t-58.5 70.5t-73.5 16.5q-118 -6 -187 -70t-69 -145q0 -75 43.5 -115.5t103.5 -40.5q59 0 104.5 37t45.5 98q0 40 -24.5 66t-63.5 26q-36 0 -59 -23 t-23 -48q0 -21 16 -21q4 0 18 7.5t25 7.5q10 0 19 -6.5t10 -16.5q0 -29 -45 -29q-32 0 -49 19t-17 45q0 34 28 61t75 27t80.5 -32t33.5 -85q0 -64 -47.5 -110t-128.5 -46q-72 0 -121 53t-49 128z" />
<glyph unicode="y" horiz-adv-x="933" d="M-354 -309q0 93 55.5 144.5t130.5 51.5q71 0 124.5 -45.5t53.5 -120.5q0 -58 -33.5 -88t-80.5 -30q-46 0 -79.5 26.5t-33.5 71.5q0 26 17 43.5t48 17.5q23 0 36.5 -10t13.5 -22q0 -10 -8.5 -16.5t-20.5 -6.5q-11 0 -26 7t-21 7q-15 0 -15 -20q0 -32 27 -52t62 -20 q37 0 62.5 23t25.5 69q0 62 -46 101t-106 39q-63 0 -108.5 -42.5t-45.5 -121.5q0 -78 60 -138.5t174 -60.5q131 0 235 123q35 41 60.5 82t41 73.5t22.5 76.5t10 71.5t-2 79.5t-9 79.5t-14 90.5q-16 91 -74 387q-17 87 -31.5 145.5t-31 100t-30.5 63.5t-36.5 34t-42 15 t-53.5 3v18q72 5 157 20.5t134 27.5l49 13q48 -133 111 -428q22 -103 45 -260t28 -184q110 165 204.5 334.5t94.5 226.5q0 28 -12 49t-29.5 35.5t-35 30t-29.5 40.5t-12 58q0 49 33 79t79 30q49 0 87 -36t38 -102q0 -55 -27 -135t-65.5 -157t-88 -161t-88 -143t-72 -108 t-34.5 -51q-27 -43 -62 -104.5t-62 -111t-63 -109t-68.5 -105t-74 -90t-83 -73.5t-93 -47t-106.5 -18q-125 0 -195.5 70t-70.5 160z" />
<glyph unicode="z" horiz-adv-x="999" d="M-66 51q0 74 63.5 125t135.5 53l584 580q-72 -21 -158 -22t-149 4.5t-123 2t-102.5 -36t-65.5 -102.5h-21l58 183q25 80 77 109.5t138 30.5q39 0 160 -8.5t207 -3.5t151 31q70 28 111.5 74t41.5 96q0 35 -23 57.5t-58 22.5q-39 0 -65 -23.5t-26 -49.5q0 -8 5 -13.5 t12 -5.5q4 0 19.5 7t25.5 7q26 0 26 -22q0 -11 -12 -21t-33 -10q-31 0 -48 17.5t-17 42.5q0 34 32 64t81 30q47 0 79.5 -31.5t32.5 -77.5q0 -25 -8 -48t-27.5 -46.5t-35.5 -40t-48.5 -46.5t-50.5 -48l-710 -707q47 0 102 -13.5t81 -23.5t83 -34q281 -118 300 -69 q11 30 -63 124q-42 53 -18 116.5t90 63.5q59 0 91 -40t32 -99q0 -60 -33.5 -115t-85 -92.5t-113.5 -59.5t-120 -22q-72 0 -156.5 27.5t-156.5 55.5t-113 28q-26 0 -46.5 -17t-30.5 -37.5t-22.5 -37.5t-25.5 -17q-26 0 -40 28.5t-14 59.5z" />
<glyph unicode="{" horiz-adv-x="913" d="M106 588q112 35 164 94.5t80 167.5l92 369q19 76 52.5 130t76 86t104.5 50.5t124 24.5t147 6l-4 -15q-140 -28 -209.5 -98.5t-101.5 -198.5l-84 -338q-15 -60 -34.5 -99.5t-55.5 -75t-93.5 -58.5t-142.5 -37l-4 -16q104 -18 152.5 -53.5t52.5 -89t-14 -128.5l-97 -385 q-32 -130 4.5 -202.5t159.5 -94.5l-4 -14q-60 0 -107.5 4.5t-90.5 14t-73.5 24.5t-53.5 38t-33.5 53.5t-10.5 71.5t13 91l104 418q30 101 6 163t-119 97z" />
<glyph unicode="|" horiz-adv-x="495" d="M172 -492v2210h152v-2210h-152z" />
<glyph unicode="}" horiz-adv-x="913" d="M-121 -387l4 14q140 28 210 98.5t102 198.5l96 385q15 60 34.5 99.5t55 75.5t93 59t142.5 37l5 16q-104 18 -152.5 53t-52.5 88.5t14 128.5l84 338q32 130 -4.5 202.5t-159.5 94.5l4 15q60 0 107.5 -4.5t90.5 -14t73.5 -24.5t53.5 -38t34 -53.5t11 -71.5t-13 -91 l-93 -371q-30 -101 -6 -163t119 -97q-112 -35 -164 -94.5t-80 -167.5l-104 -416q-19 -76 -52.5 -130t-76 -86t-104.5 -50.5t-124 -24.5t-147 -6z" />
<glyph unicode="~" horiz-adv-x="1069" d="M-2 471q45 69 119.5 118.5t158.5 49.5q88 0 240 -78q116 -57 166 -57q48 0 92.5 36.5t95.5 102.5l70 -127q-135 -166 -283 -166q-35 0 -70.5 10.5t-57 21t-60.5 32.5q-120 69 -221 69q-98 0 -182 -127z" />
<glyph unicode="&#xa2;" horiz-adv-x="1028" d="M27 381q0 114 47.5 233t128 215.5t197.5 158t245 61.5q35 0 82 -7l94 267l43 -17l-92 -260q76 -23 118 -69t42 -103q0 -46 -27.5 -78t-70.5 -32q-47 0 -79 30.5t-42 85.5l-117 -329l-43 16l154 436q-12 31 -56 31q-69 0 -141 -61.5t-126 -153.5t-89 -205.5t-35 -212.5 q0 -208 137 -268l47 131l43 -17l-47 -129q31 -8 76 -8q114 0 193 72t79 164q0 75 -45 117.5t-104 42.5q-57 0 -103.5 -40t-46.5 -104q0 -38 23 -61t59 -23q38 0 64.5 25.5t26.5 48.5q0 18 -15 18q-4 0 -20 -7t-27 -7q-10 0 -18.5 6.5t-8.5 16.5q0 11 13 19.5t35 8.5 q30 0 46.5 -16.5t16.5 -40.5q0 -34 -32 -64t-81 -30q-44 0 -75 28t-31 78q0 74 54 121t120 47q69 0 123.5 -49t54.5 -139q0 -134 -113.5 -231t-293.5 -97h-7l-100 -287l-43 17l96 274q-143 16 -236 117.5t-93 259.5z" />
<glyph unicode="&#xa3;" horiz-adv-x="1138" d="M-66 139q0 90 59 135t144 45q91 0 156 -38q5 42 14 128.5t17.5 157t19.5 135.5h-229l16 91h219q23 140 63 253.5t84 186t98.5 126.5t100 81.5t95 43.5t76.5 19.5t51 3.5q56 0 106 -18t86.5 -62t36.5 -108q0 -59 -35.5 -94t-79.5 -35q-35 0 -66.5 24t-31.5 70q0 26 7 66.5 t7 50.5q0 36 -21 55t-53 19q-63 0 -109.5 -50.5t-66.5 -144.5l-100 -487h301l-16 -91h-301q-23 -110 -75 -249t-106 -215q58 -33 145 -56.5t169 -23.5q49 0 89.5 10t73.5 31t51.5 58t18.5 87q0 79 -43.5 118.5t-105.5 39.5q-57 0 -103.5 -40t-46.5 -104q0 -38 23 -61t59 -23 q38 0 64 25t26 49q0 19 -14 19q-4 0 -20 -7.5t-27 -7.5q-10 0 -18.5 6.5t-8.5 16.5q0 11 12.5 19.5t34.5 8.5q30 0 47 -16.5t17 -40.5q0 -34 -32 -64t-81 -30q-44 0 -75 28t-31 78q0 74 54 121t120 47q71 0 124.5 -44.5t53.5 -133.5q0 -70 -21 -136t-60.5 -121t-106 -88.5 t-148.5 -33.5q-69 0 -149 42.5t-152 107.5q-94 -148 -227 -148q-78 0 -128.5 49.5t-50.5 118.5zM-33 135q0 -61 48.5 -97t101.5 -36q63 0 100 52t53 132q-25 33 -76 56.5t-100 23.5q-55 0 -91 -32t-36 -99z" />
<glyph unicode="&#xa5;" horiz-adv-x="1138" d="M-6 0v14q64 6 109.5 17t78.5 30t54.5 44.5t38.5 63t30.5 82t29.5 105.5q2 9 3 13h-332l19 69h331l50 189l-9 30h-311l18 68h277l-115 397q-5 16 -13 47q-12 43 -17.5 63t-16 52.5t-19 47t-22.5 36.5t-29 33t-36.5 24.5t-48 22.5t-60.5 16v15h647v-15q-101 -24 -113 -29 q-52 -19 -61 -65q-11 -56 27 -192l123 -453h37l190 293q39 60 67.5 105.5t50.5 85.5t36.5 67.5t20.5 52.5t9 40.5t-5.5 29.5t-16 22t-28.5 16.5t-37.5 13.5t-47.5 13v15q95 -12 167.5 -3.5t123.5 28.5t84 49.5t48 59t15 58.5q0 35 -23 57.5t-58 22.5q-39 0 -65 -24t-26 -50 q0 -18 17 -18q4 0 19.5 7t25.5 7q26 0 26 -22q0 -11 -12 -21t-33 -10q-31 0 -48 17t-17 42q0 34 32 64.5t81 30.5q47 0 79.5 -31.5t32.5 -77.5q0 -40 -17 -72.5t-57.5 -79.5t-54.5 -67l-524 -721h299l-19 -68h-327l-8 -12l-54 -207h334l-18 -69h-334q-43 -160 -46 -208 q-4 -79 52 -111q46 -26 145 -36v-14h-749z" />
<glyph unicode="&#xa9;" horiz-adv-x="1878" d="M102 739q17 160 96.5 304t201 248.5t284 165.5t338.5 61q175 0 324 -61t248.5 -165.5t149 -248.5t32.5 -304q-22 -214 -150 -392.5t-331.5 -282t-436.5 -103.5q-176 0 -325.5 61t-249 165t-149 248t-32.5 304zM229 739q-15 -142 26 -271.5t125 -225t211 -152.5t275 -57 q146 0 284 57t241.5 152.5t172 225t83.5 271.5t-26 272.5t-124.5 226t-209.5 152t-273 56.5q-148 0 -286.5 -56.5t-242.5 -152t-172.5 -226t-83.5 -272.5zM481 614q0 112 40.5 219.5t111 191.5t175 135.5t222.5 51.5q69 0 145 -19t82 -19q39 0 62 38l18 -2l-65 -290h-17 q6 123 -43.5 193.5t-150.5 70.5q-105 0 -197.5 -100.5t-142 -239t-49.5 -264.5q0 -52 11 -94.5t26.5 -68t38.5 -44.5t41 -27.5t40.5 -13.5t31 -5.5t18.5 -0.5q84 0 154.5 35t142.5 120l22 -16q-144 -195 -356 -195q-67 0 -129.5 20.5t-115 61t-84.5 108.5t-32 154z" />
<glyph unicode="&#xad;" d="M66 401l49 185h512l-47 -185h-514z" />
<glyph unicode="&#xae;" horiz-adv-x="1878" d="M102 739q17 160 96.5 304t201 248.5t284 165.5t338.5 61q175 0 324 -61t248.5 -165.5t149 -248.5t32.5 -304q-22 -214 -150 -392.5t-331.5 -282t-436.5 -103.5q-176 0 -325.5 61t-249 165t-149 248t-32.5 304zM229 739q-15 -142 26 -271.5t125 -225t211 -152.5t275 -57 q146 0 284 57t241.5 152.5t172 225t83.5 271.5t-26 272.5t-124.5 226t-209.5 152t-273 56.5q-148 0 -286.5 -56.5t-242.5 -152t-172.5 -226t-83.5 -272.5zM397 295v12q92 9 121 43.5t58 137.5q4 13 6 20l123 467q30 104 28 133q-3 42 -54 57q-20 5 -48 9v12l346 2 q21 0 41 -1.5t61.5 -6t74.5 -17.5t67 -33t53.5 -55.5t19.5 -81.5q0 -81 -62.5 -147t-148.5 -96q11 -31 26 -76.5t25 -75.5t25.5 -69t30 -65t37 -54.5t48 -47t61.5 -33.5t79 -22v-12l-153 -2q-123 0 -184.5 49.5t-102.5 171.5l-68 203l-90 -4l-55 -209q-30 -103 -28 -133 q4 -41 56 -56q19 -5 48 -8v-12h-441zM825 745q59 5 109.5 20.5t93 43.5t66.5 74t24 106q0 47 -17.5 80.5t-46.5 51t-58.5 25.5t-61.5 9z" />
<glyph unicode="&#xb4;" d="M387 1128l270 312q50 59 101 59q33 0 56.5 -22t23.5 -50q0 -52 -66 -92l-373 -221z" />
<glyph unicode="&#x2000;" horiz-adv-x="896" />
<glyph unicode="&#x2001;" horiz-adv-x="1792" />
<glyph unicode="&#x2002;" horiz-adv-x="896" />
<glyph unicode="&#x2003;" horiz-adv-x="1792" />
<glyph unicode="&#x2004;" horiz-adv-x="597" />
<glyph unicode="&#x2005;" horiz-adv-x="448" />
<glyph unicode="&#x2006;" horiz-adv-x="298" />
<glyph unicode="&#x2007;" horiz-adv-x="298" />
<glyph unicode="&#x2008;" horiz-adv-x="224" />
<glyph unicode="&#x2009;" horiz-adv-x="358" />
<glyph unicode="&#x200a;" horiz-adv-x="99" />
<glyph unicode="&#x2010;" d="M66 401l49 185h512l-47 -185h-514z" />
<glyph unicode="&#x2011;" d="M66 401l49 185h512l-47 -185h-514z" />
<glyph unicode="&#x2012;" d="M66 401l49 185h512l-47 -185h-514z" />
<glyph unicode="&#x2013;" horiz-adv-x="1126" d="M-55 408l30 157h1129l-31 -157h-1128z" />
<glyph unicode="&#x2014;" horiz-adv-x="2048" d="M-55 408l30 157h2050l-30 -157h-2050z" />
<glyph unicode="&#x2018;" horiz-adv-x="421" d="M160 1200q0 79 42.5 156.5t113 127.5t145.5 50q69 0 69 -43q0 -16 -12.5 -23.5t-28.5 -7.5q-18 0 -47 14.5t-45 14.5q-44 0 -89.5 -46.5t-45.5 -96.5q0 -24 15.5 -45.5t37.5 -38t44 -34t37.5 -42t15.5 -53.5q0 -49 -32.5 -79t-74.5 -30q-69 0 -107 53t-38 123z" />
<glyph unicode="&#x2019;" horiz-adv-x="421" d="M152 1016q0 17 15.5 25t31.5 8q13 0 35.5 -5.5t31.5 -5.5q45 0 82 49t37 101q0 11 -3 21t-6 17.5t-11.5 15.5t-13 12t-17 11.5t-17 9.5t-20 10t-18.5 9q-42 21 -65.5 46.5t-23.5 68.5q0 46 31.5 76.5t75.5 30.5q75 0 118.5 -59.5t43.5 -145.5q0 -118 -77 -223t-181 -105 q-17 0 -33 8t-16 25z" />
<glyph unicode="&#x201c;" horiz-adv-x="833" d="M160 1200q0 79 42.5 156.5t113 127.5t145.5 50q69 0 69 -43q0 -16 -12.5 -23.5t-28.5 -7.5q-18 0 -47 14.5t-45 14.5q-44 0 -89.5 -46.5t-45.5 -96.5q0 -24 15.5 -45.5t37.5 -38t44 -34t37.5 -42t15.5 -53.5q0 -49 -32.5 -79t-74.5 -30q-69 0 -107 53t-38 123zM571 1200 q0 79 42.5 156.5t113 127.5t145.5 50q70 0 70 -43q0 -16 -12.5 -23.5t-28.5 -7.5q-18 0 -47 14.5t-45 14.5q-44 0 -89.5 -46.5t-45.5 -96.5q0 -29 23.5 -56t51 -44.5t51 -47.5t23.5 -65q0 -49 -32 -79t-74 -30q-69 0 -107.5 53.5t-38.5 122.5z" />
<glyph unicode="&#x201d;" horiz-adv-x="833" d="M152 1016q0 17 15.5 25t31.5 8q13 0 35.5 -5.5t31.5 -5.5q45 0 82 49t37 101q0 11 -3 21t-6 17.5t-11.5 15.5t-13 12t-17 11.5t-17 9.5t-20 10t-18.5 9q-42 21 -65.5 46.5t-23.5 68.5q0 46 31.5 76.5t75.5 30.5q75 0 118.5 -59.5t43.5 -145.5q0 -118 -77 -223t-181 -105 q-17 0 -33 8t-16 25zM563 1016q0 17 15.5 25t31.5 8q13 0 36 -5.5t32 -5.5q45 0 82 49t37 101q0 11 -3 21t-6 17.5t-11.5 15.5t-13.5 12.5t-17 11.5t-17 9.5t-20 9.5t-19 9q-42 21 -65 46.5t-23 68.5q0 46 31.5 76.5t75.5 30.5q75 0 118 -59.5t43 -145.5q0 -118 -77 -223 t-181 -105q-17 0 -33 8t-16 25z" />
<glyph unicode="&#x2022;" horiz-adv-x="788" d="M102 739q0 121 86 207t207 86q123 0 208 -85.5t85 -207.5q0 -123 -85 -208t-208 -85q-122 0 -207.5 85t-85.5 208z" />
<glyph unicode="&#x2026;" horiz-adv-x="2048" d="M16 102q2 43 38.5 86t95.5 43q54 0 91.5 -39t34.5 -94q-3 -53 -43 -90t-96 -37q-62 0 -92.5 42.5t-28.5 88.5zM698 102q2 43 38.5 86t94.5 43q54 0 92 -39t35 -94q-3 -53 -43 -90t-96 -37q-62 0 -92.5 42.5t-28.5 88.5zM1380 102q2 43 38.5 86t94.5 43q54 0 92 -39 t35 -94q-3 -53 -43 -90t-96 -37q-62 0 -92.5 42.5t-28.5 88.5z" />
<glyph unicode="&#x202f;" horiz-adv-x="358" />
<glyph unicode="&#x205f;" horiz-adv-x="448" />
<glyph unicode="&#x20ac;" horiz-adv-x="1261" d="M-2 598l16 70h164q13 117 41 219h-160l17 67h162q52 161 136 285.5t202 200.5t251 76q61 0 118.5 -16.5t95.5 -33t51 -16.5q51 0 75 66h25l-109 -480h-20q28 445 -199 445q-63 0 -121 -42t-104 -116t-82.5 -166.5t-64.5 -202.5h342l-17 -67h-340q-22 -101 -35 -219h324 l-16 -70h-316q-4 -90 -4 -133q0 -113 23.5 -198t64 -134.5t91 -73.5t108.5 -24q88 0 162 32.5t120 84.5t71.5 114t25.5 123q0 85 -49.5 141t-143.5 56q-70 0 -128 -50t-58 -130q0 -47 28.5 -76t73.5 -29q48 0 80.5 31.5t32.5 60.5q0 23 -19 23q-4 0 -24 -8.5t-35 -8.5 q-11 0 -22 8t-11 19q0 15 16 26t44 11q37 0 58.5 -21.5t21.5 -50.5q0 -42 -40.5 -80.5t-101.5 -38.5q-55 0 -94 36t-39 98q0 93 67 151.5t150 58.5q109 0 168 -67.5t59 -169.5q0 -73 -31.5 -145.5t-90.5 -134.5t-156.5 -101t-216.5 -39q-73 0 -140 20t-126.5 64.5 t-103.5 109t-69.5 160t-25.5 211.5q0 49 2 74h-174z" />
<glyph unicode="&#x2122;" horiz-adv-x="2277" d="M215 592v14q104 10 136 47.5t64 153.5q6 20 9 31l164 614q-36 -2 -58.5 -4.5t-58.5 -10t-62.5 -22.5t-56.5 -38.5t-55.5 -61.5t-46.5 -88h-21l64 252h792l-79 -252h-21q9 73 -6.5 120.5t-55.5 68t-71.5 27t-83.5 9.5l-166 -618q-32 -117 -31 -148q0 -49 50 -67 q25 -9 65 -13v-14h-471zM965 592v14q76 7 104.5 31.5t46.5 89.5l172 635q13 55 -4.5 75.5t-85.5 26.5v15h305l76 -648l422 648h315v-15q-49 -5 -78.5 -15.5t-47.5 -35t-27.5 -51t-23.5 -78.5q-1 -4 -1.5 -6.5t-1.5 -6.5t-2 -7l-123 -461q-10 -33 -13.5 -47t-9 -38t-5 -33 t2.5 -24.5t9.5 -21.5t19 -14t29 -12t41.5 -7v-14h-434v14q48 6 76.5 16t48 36.5t27.5 48.5t24 79q1 4 2 6.5t2 7t2 7.5l158 588l-527 -817h-22l-101 819l-174 -649q-22 -72 -2 -103.5t97 -38.5v-14h-297z" />
<glyph unicode="&#xe000;" horiz-adv-x="1003" d="M0 0v1004h1004v-1004h-1004z" />
</font>
</defs>
</svg>
